<?xml version="1.0" encoding="UTF-8" standalone="no"?>
<svg
   xmlns:dc="http://purl.org/dc/elements/1.1/"
   xmlns:cc="http://creativecommons.org/ns#"
   xmlns:rdf="http://www.w3.org/1999/02/22-rdf-syntax-ns#"
   xmlns:svg="http://www.w3.org/2000/svg"
   xmlns="http://www.w3.org/2000/svg"
   viewBox="0 0 1706.6667 316.48401"
   height="316.48401"
   width="1706.6667"
   xml:space="preserve"
   id="svg2"
   version="1.1"><metadata
     id="metadata8"><rdf:RDF><cc:Work
         rdf:about=""><dc:format>image/svg+xml</dc:format><dc:type
           rdf:resource="http://purl.org/dc/dcmitype/StillImage" /></cc:Work></rdf:RDF></metadata><defs
     id="defs6"><clipPath
       id="clipPath18"
       clipPathUnits="userSpaceOnUse"><path
         id="path16"
         d="M 0,237.363 H 1280 V 0 H 0 Z" /></clipPath><linearGradient
       id="linearGradient76"
       spreadMethod="pad"
       gradientTransform="matrix(0,148.07956,148.07956,0,94.58506,67.745972)"
       gradientUnits="userSpaceOnUse"
       y2="0"
       x2="1"
       y1="0"
       x1="0"><stop
         id="stop72"
         offset="0"
         style="stop-opacity:1;stop-color:#7a5739" /><stop
         id="stop74"
         offset="1"
         style="stop-opacity:1;stop-color:#674731" /></linearGradient><linearGradient
       id="linearGradient96"
       spreadMethod="pad"
       gradientTransform="matrix(0,148.07956,148.07956,0,189.11417,67.745972)"
       gradientUnits="userSpaceOnUse"
       y2="0"
       x2="1"
       y1="0"
       x1="0"><stop
         id="stop92"
         offset="0"
         style="stop-opacity:1;stop-color:#7a5739" /><stop
         id="stop94"
         offset="1"
         style="stop-opacity:1;stop-color:#674731" /></linearGradient><linearGradient
       id="linearGradient116"
       spreadMethod="pad"
       gradientTransform="matrix(0,148.07956,148.07956,0,274.74841,67.745972)"
       gradientUnits="userSpaceOnUse"
       y2="0"
       x2="1"
       y1="0"
       x1="0"><stop
         id="stop112"
         offset="0"
         style="stop-opacity:1;stop-color:#7a5739" /><stop
         id="stop114"
         offset="1"
         style="stop-opacity:1;stop-color:#674731" /></linearGradient><linearGradient
       id="linearGradient136"
       spreadMethod="pad"
       gradientTransform="matrix(0,148.07956,148.07956,0,410.19797,67.745972)"
       gradientUnits="userSpaceOnUse"
       y2="0"
       x2="1"
       y1="0"
       x1="0"><stop
         id="stop132"
         offset="0"
         style="stop-opacity:1;stop-color:#7a5739" /><stop
         id="stop134"
         offset="1"
         style="stop-opacity:1;stop-color:#674731" /></linearGradient><linearGradient
       id="linearGradient156"
       spreadMethod="pad"
       gradientTransform="matrix(0,148.07956,148.07956,0,516.81921,67.745972)"
       gradientUnits="userSpaceOnUse"
       y2="0"
       x2="1"
       y1="0"
       x1="0"><stop
         id="stop152"
         offset="0"
         style="stop-opacity:1;stop-color:#7a5739" /><stop
         id="stop154"
         offset="1"
         style="stop-opacity:1;stop-color:#674731" /></linearGradient><linearGradient
       id="linearGradient176"
       spreadMethod="pad"
       gradientTransform="matrix(0,148.07956,148.07956,0,611.75531,67.745972)"
       gradientUnits="userSpaceOnUse"
       y2="0"
       x2="1"
       y1="0"
       x1="0"><stop
         id="stop172"
         offset="0"
         style="stop-opacity:1;stop-color:#7a5739" /><stop
         id="stop174"
         offset="1"
         style="stop-opacity:1;stop-color:#674731" /></linearGradient><linearGradient
       id="linearGradient196"
       spreadMethod="pad"
       gradientTransform="matrix(0,148.07956,148.07956,0,706.26947,67.745972)"
       gradientUnits="userSpaceOnUse"
       y2="0"
       x2="1"
       y1="0"
       x1="0"><stop
         id="stop192"
         offset="0"
         style="stop-opacity:1;stop-color:#7a5739" /><stop
         id="stop194"
         offset="1"
         style="stop-opacity:1;stop-color:#674731" /></linearGradient><linearGradient
       id="linearGradient216"
       spreadMethod="pad"
       gradientTransform="matrix(0,148.07956,148.07956,0,830.59558,67.745972)"
       gradientUnits="userSpaceOnUse"
       y2="0"
       x2="1"
       y1="0"
       x1="0"><stop
         id="stop212"
         offset="0"
         style="stop-opacity:1;stop-color:#7a5739" /><stop
         id="stop214"
         offset="1"
         style="stop-opacity:1;stop-color:#674731" /></linearGradient><linearGradient
       id="linearGradient236"
       spreadMethod="pad"
       gradientTransform="matrix(0,148.07956,148.07956,0,923.32947,67.745972)"
       gradientUnits="userSpaceOnUse"
       y2="0"
       x2="1"
       y1="0"
       x1="0"><stop
         id="stop232"
         offset="0"
         style="stop-opacity:1;stop-color:#7a5739" /><stop
         id="stop234"
         offset="1"
         style="stop-opacity:1;stop-color:#674731" /></linearGradient><linearGradient
       id="linearGradient256"
       spreadMethod="pad"
       gradientTransform="matrix(0,148.07956,148.07956,0,997.10657,67.745972)"
       gradientUnits="userSpaceOnUse"
       y2="0"
       x2="1"
       y1="0"
       x1="0"><stop
         id="stop252"
         offset="0"
         style="stop-opacity:1;stop-color:#7a5739" /><stop
         id="stop254"
         offset="1"
         style="stop-opacity:1;stop-color:#674731" /></linearGradient><linearGradient
       id="linearGradient276"
       spreadMethod="pad"
       gradientTransform="matrix(0,148.07956,148.07956,0,1064.6656,67.745972)"
       gradientUnits="userSpaceOnUse"
       y2="0"
       x2="1"
       y1="0"
       x1="0"><stop
         id="stop272"
         offset="0"
         style="stop-opacity:1;stop-color:#7a5739" /><stop
         id="stop274"
         offset="1"
         style="stop-opacity:1;stop-color:#674731" /></linearGradient><linearGradient
       id="linearGradient296"
       spreadMethod="pad"
       gradientTransform="matrix(0,148.07956,148.07956,0,1149.1066,67.745972)"
       gradientUnits="userSpaceOnUse"
       y2="0"
       x2="1"
       y1="0"
       x1="0"><stop
         id="stop292"
         offset="0"
         style="stop-opacity:1;stop-color:#7a5739" /><stop
         id="stop294"
         offset="1"
         style="stop-opacity:1;stop-color:#674731" /></linearGradient><linearGradient
       id="linearGradient316"
       spreadMethod="pad"
       gradientTransform="matrix(0,148.07956,148.07956,0,1220.4172,67.745972)"
       gradientUnits="userSpaceOnUse"
       y2="0"
       x2="1"
       y1="0"
       x1="0"><stop
         id="stop312"
         offset="0"
         style="stop-opacity:1;stop-color:#7a5739" /><stop
         id="stop314"
         offset="1"
         style="stop-opacity:1;stop-color:#674731" /></linearGradient></defs><g
     transform="matrix(1.3333333,0,0,-1.3333333,0,316.484)"
     id="g10"><g
       id="g12"><g
         clip-path="url(#clipPath18)"
         id="g14"><g
           transform="translate(165.4073,54.721)"
           id="g20"><path
             id="path22"
             style="fill:#69974b;fill-opacity:1;fill-rule:nonzero;stroke:none"
             d="m 0,0 c 0,-7.232 0,-12.88 0.378,-16.047 0.226,-2.182 0.678,-3.842 2.939,-4.141 1.053,-0.152 2.709,-0.299 3.765,-0.299 0.98,0 1.282,-0.229 1.282,-0.604 0,-0.528 -0.528,-0.756 -1.657,-0.756 -4.748,0 -9.493,0.228 -11.452,0.228 -1.959,0 -6.704,-0.228 -9.566,-0.228 -1.056,0 -1.584,0.152 -1.584,0.756 0,0.375 0.302,0.604 1.132,0.604 1.129,0 2.033,0.147 2.71,0.299 1.507,0.299 1.886,1.959 2.185,4.141 C -9.49,-12.88 -9.49,-7.232 -9.49,0 v 13.261 c 0,11.449 0,13.56 -0.152,15.971 -0.15,2.557 -0.754,3.765 -3.238,4.293 -0.604,0.147 -1.883,0.223 -2.938,0.223 -0.754,0 -1.282,0.152 -1.282,0.604 0,0.604 0.604,0.751 1.733,0.751 1.959,0 4.144,-0.076 6.103,-0.076 1.959,-0.071 3.689,-0.147 4.745,-0.147 2.862,0 18.155,0 19.888,0.076 1.432,0.071 2.335,0.071 3.088,0.299 0.452,0.153 0.828,0.452 1.206,0.452 0.302,0 0.528,-0.299 0.528,-0.68 0,-0.523 -0.379,-1.431 -0.604,-3.385 -0.077,-0.756 -0.226,-5.202 -0.376,-6.105 -0.076,-0.604 -0.226,-1.056 -0.754,-1.056 -0.527,0 -0.677,0.381 -0.753,1.208 0,0.604 0,1.807 -0.452,2.862 -0.528,1.056 -2.108,2.182 -4.973,2.259 L 0.68,31.038 C 0.226,31.038 0,30.81 0,29.982 V 11.15 c 0,-0.452 0.076,-0.681 0.528,-0.681 l 9.642,0.077 c 1.282,0 2.337,0 3.39,0.076 1.431,0.076 2.487,0.375 3.241,1.355 0.375,0.451 0.527,0.756 0.979,0.756 0.299,0 0.452,-0.229 0.452,-0.68 0,-0.452 -0.379,-2.335 -0.604,-4.669 -0.15,-1.507 -0.3,-4.973 -0.3,-5.501 0,-0.675 0,-1.431 -0.753,-1.431 -0.455,0 -0.604,0.527 -0.604,1.055 0,0.528 -0.15,1.431 -0.452,2.335 -0.375,1.055 -1.507,2.41 -3.842,2.715 C 9.795,6.78 1.809,6.78 0.528,6.78 0.152,6.78 0,6.628 0,6.1 Z" /></g><g
           transform="translate(290.7134,59.9176)"
           id="g24"><path
             id="path26"
             style="fill:#69974b;fill-opacity:1;fill-rule:nonzero;stroke:none"
             d="m 0,0 c 0,16.874 -9.716,27.349 -22.071,27.349 -8.662,0 -18.53,-4.821 -18.53,-23.578 0,-15.671 8.662,-28.1 23.126,-28.1 C -12.202,-24.329 0,-21.766 0,0 m -50.997,1.431 c 0,12.885 8.513,29.531 31.111,29.531 18.757,0 30.434,-10.921 30.434,-28.171 0,-17.254 -12.053,-30.885 -31.187,-30.885 -21.619,0 -30.358,16.194 -30.358,29.525" /></g><g
           transform="translate(359.6622,67.9818)"
           id="g28"><path
             id="path30"
             style="fill:#69974b;fill-opacity:1;fill-rule:nonzero;stroke:none"
             d="m 0,0 c 0,11.449 0,13.56 -0.15,15.971 -0.152,2.557 -0.753,3.765 -3.24,4.293 -0.601,0.147 -1.883,0.223 -2.938,0.223 -0.828,0 -1.279,0.152 -1.279,0.68 0,0.528 0.528,0.675 1.657,0.675 3.991,0 8.739,-0.223 10.997,-0.223 1.809,0 6.554,0.223 9.267,0.223 1.129,0 1.657,-0.147 1.657,-0.675 0,-0.528 -0.452,-0.68 -1.206,-0.68 -0.829,0 -1.281,-0.076 -2.184,-0.223 C 10.546,19.883 9.944,18.604 9.795,15.971 9.642,13.56 9.642,11.449 9.642,0 v -10.546 c 0,-10.926 2.185,-15.519 5.877,-18.533 3.39,-2.786 6.854,-3.091 9.417,-3.091 3.313,0 7.381,1.056 10.395,4.07 4.141,4.141 4.367,10.921 4.367,18.681 V 0 c 0,11.449 0,13.56 -0.149,15.971 -0.15,2.557 -0.754,3.765 -3.238,4.293 -0.604,0.147 -1.886,0.223 -2.713,0.223 -0.829,0 -1.281,0.152 -1.281,0.68 0,0.528 0.528,0.675 1.583,0.675 3.842,0 8.587,-0.223 8.663,-0.223 0.903,0 5.648,0.223 8.587,0.223 1.055,0 1.581,-0.147 1.581,-0.675 0,-0.528 -0.452,-0.68 -1.355,-0.68 -0.828,0 -1.282,-0.076 -2.185,-0.223 -2.033,-0.381 -2.637,-1.66 -2.786,-4.293 C 46.252,13.56 46.252,11.449 46.252,0 v -8.064 c 0,-8.358 -0.827,-17.25 -7.155,-22.675 -5.349,-4.592 -10.771,-5.42 -15.669,-5.42 -3.991,0 -11.223,0.224 -16.724,5.197 C 2.862,-27.496 0,-21.924 0,-11.003 Z" /></g><g
           transform="translate(476.4496,43.1198)"
           id="g32"><path
             id="path34"
             style="fill:#69974b;fill-opacity:1;fill-rule:nonzero;stroke:none"
             d="m 0,0 c 0.152,-5.877 1.132,-7.836 2.636,-8.358 1.282,-0.452 2.713,-0.528 3.918,-0.528 0.83,0 1.282,-0.152 1.282,-0.604 0,-0.604 -0.678,-0.756 -1.733,-0.756 -4.898,0 -7.91,0.228 -9.341,0.228 -0.68,0 -4.22,-0.228 -8.137,-0.228 -0.977,0 -1.657,0.076 -1.657,0.756 0,0.452 0.451,0.604 1.205,0.604 0.979,0 2.337,0.076 3.39,0.376 1.959,0.604 2.261,2.786 2.337,9.343 l 0.678,44.364 c 0,1.507 0.225,2.563 0.979,2.563 0.827,0 1.505,-0.98 2.786,-2.335 C -0.754,44.446 10.698,32.393 21.695,21.472 26.818,16.346 36.988,5.501 38.27,4.293 h 0.375 l -0.753,33.824 c -0.077,4.598 -0.754,6.03 -2.561,6.781 -1.131,0.451 -2.938,0.451 -3.994,0.451 -0.903,0 -1.205,0.229 -1.205,0.68 0,0.599 0.83,0.675 1.959,0.675 3.918,0 7.534,-0.223 9.115,-0.223 0.829,0 3.692,0.223 7.384,0.223 0.979,0 1.733,-0.076 1.733,-0.675 0,-0.451 -0.455,-0.68 -1.358,-0.68 -0.754,0 -1.355,0 -2.261,-0.223 -2.108,-0.604 -2.71,-2.187 -2.786,-6.405 L 43.091,-8.81 c 0,-1.659 -0.302,-2.34 -0.979,-2.34 -0.83,0 -1.734,0.833 -2.563,1.66 C 34.804,-4.968 25.161,4.897 17.326,12.657 9.114,20.792 0.754,29.982 -0.601,31.414 h -0.226 z" /></g><g
           transform="translate(598.129,59.6945)"
           id="g36"><path
             id="path38"
             style="fill:#69974b;fill-opacity:1;fill-rule:nonzero;stroke:none"
             d="m 0,0 c 0,-7.988 0.073,-13.789 0.15,-15.22 0.076,-1.883 0.225,-4.892 0.829,-5.724 0.98,-1.431 3.916,-3.009 9.869,-3.009 7.683,0 12.806,1.502 17.325,5.419 4.821,4.147 6.329,10.998 6.329,18.757 0,9.572 -3.994,15.748 -7.232,18.833 -6.933,6.633 -15.519,7.536 -21.396,7.536 -1.504,0 -4.293,-0.228 -4.895,-0.527 C 0.299,25.76 0.073,25.384 0.073,24.557 0,21.994 0,15.443 0,9.49 Z m -9.416,8.287 c 0,11.449 0,13.56 -0.153,15.971 -0.149,2.558 -0.751,3.766 -3.237,4.293 -0.604,0.147 -1.883,0.223 -2.939,0.223 -0.83,0 -1.281,0.153 -1.281,0.681 0,0.527 0.527,0.674 1.657,0.674 3.994,0 8.739,-0.223 10.847,-0.223 2.337,0 7.082,0.223 11.601,0.223 9.417,0 21.997,0 30.209,-8.586 3.765,-3.918 7.308,-10.17 7.308,-19.132 0,-9.49 -3.994,-16.722 -8.212,-21.021 -3.466,-3.537 -11.299,-8.886 -25.237,-8.886 -2.71,0 -5.801,0.223 -8.663,0.452 -2.862,0.223 -5.499,0.452 -7.381,0.452 -0.83,0 -2.487,0 -4.294,-0.077 -1.733,0 -3.692,-0.152 -5.199,-0.152 -0.979,0 -1.505,0.229 -1.505,0.756 0,0.376 0.3,0.604 1.206,0.604 1.129,0 2.032,0.147 2.71,0.3 1.507,0.299 1.885,1.959 2.184,4.141 0.379,3.167 0.379,9.12 0.379,16.047 z" /></g><g
           transform="translate(722.7467,55.8528)"
           id="g40"><path
             id="path42"
             style="fill:#69974b;fill-opacity:1;fill-rule:nonzero;stroke:none"
             d="m 0,0 c 0.375,0 0.452,0.223 0.375,0.452 l -6.78,18.528 c -0.076,0.305 -0.152,0.68 -0.375,0.68 -0.229,0 -0.376,-0.375 -0.452,-0.68 L -14.164,0.528 C -14.24,0.223 -14.164,0 -13.865,0 Z m -15.367,-3.765 c -0.381,0 -0.528,-0.153 -0.68,-0.604 l -4.07,-10.323 c -0.751,-1.883 -1.126,-3.689 -1.126,-4.593 0,-1.354 0.674,-2.334 3.014,-2.334 h 1.126 c 0.904,0 1.132,-0.152 1.132,-0.604 0,-0.604 -0.451,-0.756 -1.278,-0.756 -2.411,0 -5.654,0.228 -7.989,0.228 -0.827,0 -4.97,-0.228 -8.888,-0.228 -0.98,0 -1.431,0.152 -1.431,0.756 0,0.452 0.302,0.604 0.903,0.604 0.677,0 1.733,0.076 2.337,0.147 3.464,0.452 4.895,3.015 6.402,6.78 l 18.906,46.704 c 0.904,2.188 1.355,3.015 2.112,3.015 0.674,0 1.131,-0.675 1.882,-2.411 1.807,-4.141 13.86,-34.276 18.681,-45.724 2.862,-6.781 5.05,-7.836 6.633,-8.212 1.126,-0.223 2.258,-0.299 3.162,-0.299 0.604,0 0.979,-0.076 0.979,-0.604 0,-0.604 -0.68,-0.756 -3.466,-0.756 -2.71,0 -8.211,0 -14.235,0.152 -1.36,0.076 -2.264,0.076 -2.264,0.604 0,0.452 0.305,0.604 1.056,0.68 0.528,0.147 1.056,0.827 0.68,1.731 L 2.182,-4.293 c -0.147,0.375 -0.375,0.528 -0.751,0.528 z" /></g><g
           transform="translate(807.3778,85.6067)"
           id="g44"><path
             id="path46"
             style="fill:#69974b;fill-opacity:1;fill-rule:nonzero;stroke:none"
             d="m 0,0 -11.226,-0.299 c -4.369,-0.153 -6.176,-0.528 -7.308,-2.188 -0.751,-1.126 -1.131,-2.035 -1.278,-2.633 -0.153,-0.604 -0.381,-0.904 -0.833,-0.904 -0.528,0 -0.675,0.376 -0.675,1.203 0,1.208 1.431,8.059 1.584,8.663 0.223,0.979 0.451,1.431 0.903,1.431 0.599,0 1.355,-0.751 3.238,-0.904 2.182,-0.228 5.044,-0.375 7.531,-0.375 h 29.83 c 2.41,0 4.07,0.223 5.202,0.375 1.126,0.229 1.73,0.376 2.03,0.376 0.527,0 0.604,-0.452 0.604,-1.578 0,-1.584 -0.224,-6.78 -0.224,-8.739 -0.076,-0.756 -0.228,-1.208 -0.68,-1.208 -0.604,0 -0.751,0.375 -0.827,1.507 l -0.076,0.827 c -0.152,1.959 -2.187,4.071 -8.891,4.223 L 9.414,0 v -30.886 c 0,-6.927 0,-12.88 0.375,-16.117 0.229,-2.112 0.68,-3.771 2.939,-4.071 1.055,-0.152 2.715,-0.299 3.841,-0.299 0.827,0 1.208,-0.228 1.208,-0.604 0,-0.528 -0.604,-0.756 -1.431,-0.756 -4.973,0 -9.718,0.228 -11.83,0.228 -1.73,0 -6.475,-0.228 -9.49,-0.228 -0.979,0 -1.507,0.228 -1.507,0.756 0,0.376 0.299,0.604 1.208,0.604 1.127,0 2.03,0.147 2.71,0.299 1.507,0.3 1.959,1.959 2.182,4.141 C 0,-43.766 0,-37.813 0,-30.886 Z" /></g><g
           transform="translate(895.9921,67.9818)"
           id="g48"><path
             id="path50"
             style="fill:#69974b;fill-opacity:1;fill-rule:nonzero;stroke:none"
             d="m 0,0 c 0,11.449 0,13.56 -0.147,15.971 -0.152,2.557 -0.903,3.841 -2.563,4.217 -0.827,0.223 -1.806,0.299 -2.71,0.299 -0.756,0 -1.208,0.152 -1.208,0.756 0,0.452 0.604,0.599 1.807,0.599 2.862,0 7.612,-0.223 9.795,-0.223 1.882,0 6.328,0.223 9.19,0.223 0.98,0 1.584,-0.147 1.584,-0.599 0,-0.604 -0.452,-0.756 -1.208,-0.756 -0.751,0 -1.355,-0.076 -2.259,-0.223 C 10.246,19.883 9.642,18.604 9.495,15.971 9.343,13.56 9.343,11.449 9.343,0 v -13.261 c 0,-7.308 0,-13.255 0.299,-16.498 0.229,-2.03 0.757,-3.39 3.015,-3.69 1.055,-0.152 2.71,-0.299 3.841,-0.299 0.828,0 1.208,-0.229 1.208,-0.604 0,-0.528 -0.604,-0.756 -1.431,-0.756 -4.973,0 -9.718,0.228 -11.753,0.228 -1.731,0 -6.481,-0.228 -9.49,-0.228 -0.98,0 -1.507,0.228 -1.507,0.756 0,0.375 0.299,0.604 1.202,0.604 1.132,0 2.035,0.147 2.716,0.299 1.507,0.3 1.958,1.584 2.182,3.766 C 0,-26.516 0,-20.569 0,-13.261 Z" /></g><g
           transform="translate(1017.2388,59.9176)"
           id="g52"><path
             id="path54"
             style="fill:#69974b;fill-opacity:1;fill-rule:nonzero;stroke:none"
             d="m 0,0 c 0,16.874 -9.718,27.349 -22.076,27.349 -8.663,0 -18.528,-4.821 -18.528,-23.578 0,-15.671 8.663,-28.1 23.126,-28.1 C -12.205,-24.329 0,-21.766 0,0 m -51.003,1.431 c 0,12.885 8.516,29.531 31.114,29.531 18.757,0 30.435,-10.921 30.435,-28.171 0,-17.254 -12.053,-30.885 -31.191,-30.885 -21.619,0 -30.358,16.194 -30.358,29.525" /></g><g
           transform="translate(1092.8969,43.1198)"
           id="g56"><path
             id="path58"
             style="fill:#69974b;fill-opacity:1;fill-rule:nonzero;stroke:none"
             d="m 0,0 c 0.147,-5.877 1.126,-7.836 2.634,-8.358 1.284,-0.452 2.715,-0.528 3.918,-0.528 0.827,0 1.278,-0.152 1.278,-0.604 0,-0.604 -0.674,-0.756 -1.73,-0.756 -4.897,0 -7.912,0.228 -9.343,0.228 -0.675,0 -4.217,-0.228 -8.135,-0.228 -0.98,0 -1.654,0.076 -1.654,0.756 0,0.452 0.451,0.604 1.202,0.604 0.98,0 2.335,0.076 3.39,0.376 1.959,0.604 2.259,2.786 2.335,9.343 l 0.68,44.364 c 0,1.507 0.223,2.563 0.979,2.563 0.827,0 1.508,-0.98 2.786,-2.335 C -0.756,44.446 10.693,32.393 21.695,21.472 26.816,16.346 36.986,5.501 38.264,4.293 h 0.376 l -0.751,33.824 c -0.076,4.598 -0.751,6.03 -2.563,6.781 -1.126,0.451 -2.938,0.451 -3.989,0.451 -0.908,0 -1.208,0.229 -1.208,0.68 0,0.599 0.828,0.675 1.959,0.675 3.918,0 7.531,-0.223 9.115,-0.223 0.827,0 3.689,0.223 7.384,0.223 0.979,0 1.73,-0.076 1.73,-0.675 0,-0.451 -0.451,-0.68 -1.355,-0.68 -0.751,0 -1.355,0 -2.258,-0.223 -2.111,-0.604 -2.715,-2.187 -2.786,-6.405 L 43.086,-8.81 c 0,-1.659 -0.3,-2.34 -0.98,-2.34 -0.827,0 -1.73,0.833 -2.557,1.66 C 34.798,-4.968 25.156,4.897 17.326,12.657 9.115,20.792 0.751,29.982 -0.604,31.414 h -0.229 z" /></g></g></g><g
       id="g60"><g
         id="g62"><g
           id="g68"><g
             id="g70"><path
               id="path78"
               style="fill:url(#linearGradient76);stroke:none"
               d="m 135.862,210.293 v -0.004 h -19.25 v 0.004 h -10.648 l 0.021,-1.335 1.687,0.005 c 4.618,0 8.371,-3.655 8.548,-8.226 v 0 -34.566 H 72.939 v 34.479 c 0.13,4.612 3.905,8.313 8.55,8.313 v 0 l 1.687,-0.005 0.023,1.335 h -10.65 v -0.004 H 53.302 v 0.004 H 42.654 l 0.02,-1.335 1.688,0.005 c 4.654,0 8.435,-3.714 8.55,-8.341 v 0 -74.048 c -0.087,-4.649 -3.877,-8.391 -8.55,-8.391 v 0 h -1.688 l -0.02,-1.335 h 40.55 l -0.023,1.335 h -1.688 c -4.673,0 -8.462,3.742 -8.55,8.391 v 0 33.974 h 43.279 v -34.075 c -0.14,-4.604 -3.909,-8.29 -8.548,-8.29 v 0 h -1.687 l -0.023,-1.335 h 40.552 l -0.027,1.335 h -1.687 c -4.673,0 -8.461,3.742 -8.55,8.391 v 0 h -0.005 v 73.993 c 0.09,4.649 3.879,8.396 8.552,8.396 v 0 l 1.688,-0.005 0.023,1.335 z" /></g></g></g></g><g
       id="g80"><g
         id="g82"><g
           id="g88"><g
             id="g90"><path
               id="path98"
               style="fill:url(#linearGradient96);stroke:none"
               d="m 202.096,196.931 h -46.961 l 0.01,-1.335 h 1.6 c 3.948,0 7.171,-2.972 7.227,-6.975 v 0 -63.459 c -0.086,-3.976 -3.298,-6.979 -7.227,-6.979 v 0 h -1.6 l -0.008,-1.34 h 62.776 l 5.18,24.547 h -1.288 c -3.496,-11.803 -11.23,-19.066 -22.511,-19.176 v 0 h -16.075 v 31.658 h 15.355 c 6.175,-0.193 10.02,-4.627 10.02,-10.547 v 0 -0.944 l 1.38,-0.005 v 28.247 l -1.38,-0.005 v -0.857 c 0,-5.975 -3.919,-10.437 -10.199,-10.551 v 0 h -15.178 v 32.36 h 19.236 c 7.713,-0.119 12.13,-4.943 12.13,-12.633 v 0 -1.243 l 1.379,-0.009 v 21.291 c -2.111,-0.835 -8.857,-2.018 -13.866,-2.045" /></g></g></g></g><g
       id="g100"><g
         id="g102"><g
           id="g108"><g
             id="g110"><path
               id="path118"
               style="fill:url(#linearGradient116);stroke:none"
               d="m 230.785,196.944 0.009,-1.339 h 1.681 c 3.843,0 6.955,-2.939 7.026,-6.934 v 0 -63.532 c -0.095,-3.976 -3.277,-6.956 -7.106,-6.956 v 0 h -1.601 l -0.006,-1.34 h 36.749 l -0.008,1.34 h -1.45 c -3.553,0 -7.244,2.641 -7.257,7.089 v 0 66.151 c 0.62,-0.025 1.432,-0.012 2.408,0.002 v 0 c 1.419,0.018 3.185,0.037 5.224,-0.057 v 0 c 4.625,-0.215 13.59,-2.114 14.186,-15.284 v 0 c 0.114,-2.609 -0.196,-4.521 -0.447,-5.58 v 0 c -2.233,-11.217 -8.339,-13.28 -13.87,-13.353 v 0 c -1.967,-0.042 -3.349,-0.018 -3.416,-0.018 v 0 -1.101 c 2.461,-0.197 5.765,-2.591 7.996,-8.181 v 0 c 1.219,-4.485 6.002,-13.441 8.946,-18.204 v 0 c 6.346,-10.002 13.174,-12.799 27.671,-12.799 v 0 h 11.192 v 1.335 c -5.503,0.022 -8.509,1.999 -13.723,9.088 v 0 c -4.682,6.241 -8.57,12.854 -9.694,14.876 v 0 c -2.502,4.104 -7.598,9.753 -12.885,11.362 v 0 c 13.145,1.895 18.537,12.176 18.537,21.567 v 0 c 0,16.641 -14.341,21.864 -29.137,21.868 v 0 z" /></g></g></g></g><g
       id="g120"><g
         id="g122"><g
           id="g128"><g
             id="g130"><path
               id="path138"
               style="fill:url(#linearGradient136);stroke:none"
               d="m 368.263,212.154 -11.058,-85.612 h -0.011 c -0.686,-5.273 -4.957,-8.359 -9.756,-8.359 v 0 h -2.132 v -1.335 h 27.953 v 1.256 h -2.079 c -2.876,0.01 -5.205,2.825 -5.205,5.701 v 0 c 0,0.137 0.006,0.27 0.018,0.403 v 0 l 5.239,47.63 34.349,-57.668 v -0.004 h 1.258 c 0.179,6.497 5.145,14.765 5.145,14.765 v 0 l 25.005,43.242 5.269,-47.781 h -0.023 c 0.02,-0.193 0.034,-0.39 0.034,-0.587 v 0 c 0,-2.876 -2.329,-5.691 -5.204,-5.701 v 0 h -2.08 v -1.261 h 40.105 v 1.34 h -2.123 c -4.771,0 -8.882,3.086 -9.728,8.359 v 0 h -0.012 l -11.381,85.571 h -1.22 l -39.709,-68.059 -41.416,68.1 z" /></g></g></g></g><g
       id="g140"><g
         id="g142"><g
           id="g148"><g
             id="g150"><path
               id="path158"
               style="fill:url(#linearGradient156);stroke:none"
               d="m 515.191,200.622 c -0.408,-3.765 -5.308,-14.124 -6.229,-16.182 v 0 l -27.534,-59.297 c -2.541,-4.997 -6.821,-6.96 -10.272,-6.96 v 0 h -1.064 v -1.335 h 26.722 v 1.321 h -1.047 c -3.042,0 -6.47,2.544 -4.636,7.25 v 0 l 5.331,12.376 h 28.272 l 5.18,-12.202 c 1.991,-4.815 -1.468,-7.424 -4.547,-7.424 v 0 h -1.05 v -1.321 h 39.229 v 1.335 h -1.009 c -3.657,0 -7.903,2.09 -10.487,7.451 v 0 l -35.726,74.988 z m -4.491,-29.765 11.803,-27.812 h -23.779 z" /></g></g></g></g><g
       id="g160"><g
         id="g162"><g
           id="g168"><g
             id="g170"><path
               id="path178"
               style="fill:url(#linearGradient176);stroke:none"
               d="m 570.617,198.774 c 0,0 1.454,-6.062 1.454,-15.115 v 0 -58.653 c -0.033,-3.888 -3.325,-6.823 -7.355,-6.823 v 0 h -2.179 l -0.009,-1.335 h 37.338 l -0.007,1.335 h -2.219 c -4.031,0 -7.241,2.935 -7.355,6.823 v 0 h -0.003 l -0.03,44.117 61.367,-53.981 h 1.194 c 0,0 -1.446,6.191 -1.446,15.499 v 0 58.329 c 0.211,3.792 3.381,6.631 7.343,6.631 v 0 h 2.264 l 0.008,1.334 H 623.53 l 0.007,-1.334 h 2.263 c 4.031,0 7.238,-2.935 7.27,-6.823 v 0 h 0.007 l 0.062,-43.88 -61.245,53.835 -0.034,0.041 z" /></g></g></g></g><g
       id="g180"><g
         id="g182"><g
           id="g188"><g
             id="g190"><path
               id="path198"
               style="fill:url(#linearGradient196);stroke:none"
               d="m 724.401,196.944 v -1.334 h 1.444 c 3.33,0 5.801,-3.375 4.302,-6.604 v 0 L 712.13,158.379 694.379,189.03 c -1.421,3.15 0.885,6.58 4.296,6.58 v 0 h 1.445 v 1.334 h -40.554 v -1.334 h 1.623 c 4.915,0 9.317,-2.853 11.735,-6.558 v 0 h 0.031 l 23.542,-36.542 v -27.238 c -0.031,-4.027 -3.411,-7.089 -7.437,-7.089 v 0 h -1.532 l -0.005,-1.335 h 37.286 l -0.005,1.335 h -1.49 c -4.113,0 -7.405,3.062 -7.521,7.089 v 0 27.165 l 23.685,36.588 h 0.032 c 2.436,3.522 6.833,6.585 11.785,6.585 v 0 h 1.678 v 1.334 z" /></g></g></g></g><g
       id="g200"><g
         id="g202"><g
           id="g208"><g
             id="g210"><path
               id="path218"
               style="fill:url(#linearGradient216);stroke:none"
               d="m 854.31,208.967 h 1.173 c 3.449,0 7.297,-3.021 5.104,-8.363 v 0 h 0.051 l -23.57,-55.174 -22.602,55.174 h 0.059 c -1.948,5.342 1.624,8.363 5.072,8.363 v 0 h 1.174 v 1.326 l -42.54,-0.004 v -1.335 h 1.068 c 3.962,0 8.516,-2.243 11.409,-7.645 v 0 l 40.454,-87.139 h 1.201 c 0.326,3.884 5.614,15.453 6.567,17.485 v 0 l 31.603,69.861 c 2.839,5.255 7.424,7.438 11.239,7.438 v 0 h 1.188 v 1.335 l -28.65,0.004 z" /></g></g></g></g><g
       id="g220"><g
         id="g222"><g
           id="g228"><g
             id="g230"><path
               id="path238"
               style="fill:url(#linearGradient236);stroke:none"
               d="m 876.096,156.848 c 0,-25.743 18.948,-41.706 47.19,-41.706 v 0 c 28.33,0 47.277,15.963 47.277,41.706 v 0 c 0,25.83 -18.947,41.788 -47.277,41.788 v 0 c -28.242,0 -47.19,-15.958 -47.19,-41.788 m 20.447,0 c 0,22.598 10.565,36.542 26.743,36.542 v 0 c 16.264,0 26.748,-13.944 26.748,-36.542 v 0 c 0,-22.51 -10.484,-36.459 -26.748,-36.459 v 0 c -16.178,0 -26.743,13.949 -26.743,36.459" /></g></g></g></g><g
       id="g240"><g
         id="g242"><g
           id="g248"><g
             id="g250"><path
               id="path258"
               style="fill:url(#linearGradient256);stroke:none"
               d="m 978.161,196.944 0.009,-1.334 h 1.578 c 4.172,0 7.663,-3.063 7.699,-7.09 v 0 -63.257 c -0.041,-4.022 -3.527,-7.08 -7.694,-7.08 v 0 h -1.583 l -0.009,-1.335 h 37.891 l -0.01,1.335 h -1.576 c -4.242,0 -7.645,3.044 -7.783,7.052 v 0 63.377 c 0.17,3.985 3.559,6.998 7.777,6.998 v 0 h 1.541 v 1.334 h -37.845 z" /></g></g></g></g><g
       id="g260"><g
         id="g262"><g
           id="g268"><g
             id="g270"><path
               id="path278"
               style="fill:url(#linearGradient276);stroke:none"
               d="m 1023.847,156.935 c 0,-26.458 18.42,-41.659 48.13,-41.793 v 0 c 17.37,0 28.293,6.58 33.507,15.041 v 0 l -1.568,20.13 h -1.032 c -3.302,-21.74 -11.845,-29.933 -30.889,-29.874 v 0 c -17.525,0.422 -27.802,14.619 -27.802,36.758 v 0 c 0,21.767 9.745,36.198 29.151,36.198 v 0 c 13.224,0 23.139,-5.631 27.66,-22.029 v 0 h 1.036 l -0.119,21.208 c -6.901,3.416 -17.737,6.067 -29.944,6.067 v 0 c -30.136,0 -48.13,-15.55 -48.13,-41.706" /></g></g></g></g><g
       id="g280"><g
         id="g282"><g
           id="g288"><g
             id="g290"><path
               id="path298"
               style="fill:url(#linearGradient296);stroke:none"
               d="m 1162.088,196.931 h -46.96 l 0.01,-1.335 h 1.6 c 3.948,0 7.172,-2.972 7.227,-6.975 v 0 -63.459 c -0.087,-3.976 -3.297,-6.979 -7.227,-6.979 v 0 h -1.6 l -0.01,-1.34 h 62.776 l 5.181,24.547 h -1.288 c -3.499,-11.803 -11.23,-19.066 -22.511,-19.176 v 0 h -16.072 v 31.658 h 15.352 c 6.177,-0.193 10.02,-4.627 10.02,-10.547 v 0 -0.944 l 1.381,-0.005 v 28.247 l -1.381,-0.005 v -0.857 c 0,-5.975 -3.92,-10.437 -10.198,-10.551 v 0 h -15.178 v 32.36 h 19.236 c 7.713,-0.119 12.129,-4.943 12.129,-12.633 v 0 -1.243 l 1.38,-0.009 v 21.291 c -2.109,-0.835 -8.855,-2.018 -13.867,-2.045" /></g></g></g></g><g
       id="g300"><g
         id="g302"><g
           id="g308"><g
             id="g310"><path
               id="path318"
               style="fill:url(#linearGradient316);stroke:none"
               d="m 1193.595,178.428 c -1.008,-9.139 2.908,-17.201 11.808,-21.837 v 0 l 19.012,-12.028 c 7.126,-3.677 9.969,-7.406 9.969,-12.009 v 0 c 0,-6.535 -5.043,-12.033 -15.448,-12.111 v 0 c -14.262,-0.059 -22.822,10.038 -22.057,22.121 v 0 h -1.045 c -3.224,-5.044 -5.054,-15.228 -2.999,-20.323 v 0 c 3.837,-4.15 13.1,-7.099 24.61,-7.099 v 0 c 18.563,0 30.545,9.066 31.37,24.166 v 0 c 0.601,9.511 -3.953,16.38 -10.987,20.039 v 0 l -21.103,12.972 c -5.126,2.757 -9.033,5.651 -8.652,10.611 v 0 c 0.334,6.076 6.034,10.387 14.599,10.387 v 0 c 10.626,0 16.596,-5.301 16.596,-13.399 v 0 h 1.133 l 1.591,15.197 h 0.01 l 0.271,2.302 h -7.246 c -5.539,0.692 -12.89,1.219 -17.351,1.219 v 0 c -13.592,0 -22.951,-7.488 -24.08,-20.208" /></g></g></g></g></g></svg>