<?xml version="1.0" standalone="no"?>
<!DOCTYPE svg PUBLIC "-//W3C//DTD SVG 20010904//EN"
 "http://www.w3.org/TR/2001/REC-SVG-20010904/DTD/svg10.dtd">
<svg version="1.0" xmlns="http://www.w3.org/2000/svg"
 width="1059.000000pt" height="1059.000000pt" viewBox="0 0 1059.000000 1059.000000"
 preserveAspectRatio="xMidYMid meet">
<metadata>
Created by potrace 1.14, written by Peter Selinger 2001-2017
</metadata>
<g transform="translate(0.000000,1059.000000) scale(0.100000,-0.100000)"
fill="#000000" stroke="none">
<path d="M5456 10022 c-2 -4 4 -8 15 -8 10 0 19 4 19 8 0 4 -6 8 -14 8 -8 0
-17 -4 -20 -8z"/>
<path d="M5500 10022 c0 -4 9 -8 20 -8 11 0 20 4 20 8 0 4 -9 8 -20 8 -11 0
-20 -4 -20 -8z"/>
<path d="M5553 10017 c2 -6 36 -11 77 -12 41 -2 99 -6 128 -9 37 -5 52 -3 52
5 0 7 -3 9 -7 6 -3 -4 -12 -2 -18 3 -16 13 -236 19 -232 7z"/>
<path d="M5110 9969 c0 -5 5 -7 10 -4 6 3 10 8 10 11 0 2 -4 4 -10 4 -5 0 -10
-5 -10 -11z"/>
<path d="M5178 9973 c7 -3 16 -2 19 1 4 3 -2 6 -13 5 -11 0 -14 -3 -6 -6z"/>
<path d="M5223 9960 c19 -25 20 -26 14 -8 -4 11 0 18 11 21 9 3 5 4 -10 4 -23
-1 -25 -4 -15 -17z"/>
<path d="M5383 9973 c43 -2 110 -2 150 0 40 1 5 3 -78 3 -82 0 -115 -2 -72 -3z"/>
<path d="M4967 9964 c-1 -1 -41 -5 -89 -9 -48 -3 -99 -8 -114 -11 -14 -3 -45
-7 -67 -10 -23 -2 -49 -6 -57 -8 -14 -2 -60 -10 -130 -22 -14 -2 -35 -6 -47
-9 -13 -3 -33 -7 -45 -10 -13 -3 -36 -8 -52 -11 -16 -2 -32 -7 -36 -9 -4 -2
-21 -7 -38 -10 -67 -11 -320 -92 -397 -126 -11 -5 -33 -13 -49 -19 -16 -6 -27
-12 -25 -15 3 -2 75 20 162 49 86 30 157 52 157 51 0 -2 15 1 33 6 17 6 40 12
50 14 10 2 27 7 37 10 10 3 27 8 37 10 10 2 47 10 83 18 80 19 137 27 215 32
33 2 77 6 98 9 20 3 37 1 37 -4 0 -6 -4 -10 -8 -10 -5 0 -51 -9 -103 -20 -52
-11 -107 -23 -124 -26 -43 -8 -60 -12 -60 -14 0 -2 -26 -8 -65 -16 -86 -15
-387 -110 -535 -167 -44 -17 -82 -32 -85 -32 -3 -1 -18 -7 -35 -14 -257 -106
-514 -242 -714 -377 -51 -35 -97 -64 -101 -64 -5 0 -10 -4 -12 -8 -1 -4 -57
-49 -123 -99 -66 -50 -129 -100 -140 -110 -18 -16 -124 -107 -178 -152 -14
-12 -20 -13 -26 -3 -9 15 -47 -30 -75 -88 -9 -19 -50 -71 -91 -115 -72 -78
-74 -79 -75 -50 -1 29 -1 29 -15 10 -8 -11 -19 -25 -25 -32 -5 -7 -10 -15 -10
-19 0 -5 -52 -71 -102 -129 -21 -25 -119 -145 -133 -163 -5 -8 -20 -25 -32
-38 -12 -13 -19 -24 -15 -24 4 0 0 -6 -9 -13 -9 -7 -16 -14 -16 -17 1 -3 -15
-30 -34 -60 -19 -30 -46 -74 -59 -97 -13 -24 -29 -43 -34 -43 -6 0 -19 -18
-29 -40 -9 -22 -22 -40 -28 -40 -7 0 -8 4 -2 13 12 16 34 67 29 67 -7 0 -71
-114 -67 -119 1 -2 -1 -7 -6 -10 -4 -3 -44 -59 -87 -125 -59 -88 -76 -120 -66
-126 20 -12 -16 -108 -97 -254 -6 -11 -14 -38 -17 -58 -8 -49 -46 -189 -57
-208 -8 -14 -3 49 6 78 2 6 1 12 -3 12 -6 0 -102 -288 -108 -324 -1 -6 -4 -25
-7 -43 -4 -23 -2 -30 8 -27 10 4 10 -6 0 -58 -28 -131 -55 -179 -69 -121 -6
21 -9 24 -17 12 -8 -12 -13 -6 -10 13 0 4 3 24 6 45 12 86 31 192 41 227 4 11
2 16 -4 12 -5 -3 -12 -18 -15 -33 -9 -51 -74 -206 -80 -192 -4 11 -6 11 -7 -1
-1 -8 -3 -22 -5 -30 -4 -14 -9 -39 -19 -100 -3 -14 -5 -25 -7 -25 -1 0 -3 -11
-4 -25 -1 -14 -5 -47 -9 -75 -29 -199 -38 -337 -38 -545 1 -170 4 -240 18
-385 10 -109 11 -114 36 -270 6 -38 11 -76 11 -82 0 -7 5 -13 10 -13 5 0 7 7
3 15 -3 8 -2 15 3 15 5 0 12 -26 16 -57 5 -32 10 -67 11 -78 2 -11 4 -46 4
-77 0 -31 7 -75 15 -97 8 -23 11 -41 8 -41 -3 0 0 -8 8 -17 8 -10 22 -34 32
-53 17 -36 38 -71 47 -80 7 -7 27 -66 45 -138 48 -191 232 -683 246 -660 5 7
20 -15 41 -58 18 -38 36 -70 41 -72 4 -2 7 -9 7 -16 0 -7 9 -21 20 -31 11 -10
20 -22 20 -28 0 -5 22 -39 48 -76 27 -36 52 -73 55 -81 4 -8 18 -33 33 -55
l25 -40 -31 35 -31 35 32 -55 c18 -30 41 -72 52 -92 11 -20 37 -60 59 -88 21
-28 38 -54 38 -58 0 -4 -5 1 -11 11 -11 19 -29 23 -29 7 0 -6 11 -23 24 -38
60 -68 134 -167 131 -173 -5 -7 217 -224 340 -334 44 -38 90 -80 103 -93 12
-12 27 -22 32 -22 6 0 10 -3 10 -8 0 -4 26 -27 57 -52 32 -24 63 -48 68 -53 6
-4 44 -33 85 -63 41 -30 80 -58 85 -62 6 -4 37 -25 70 -46 33 -21 72 -47 87
-57 15 -11 33 -19 40 -19 10 0 10 -2 0 -9 -10 -6 -5 -14 21 -30 19 -11 37 -21
40 -21 3 0 29 -14 57 -30 74 -44 342 -180 430 -219 41 -19 127 -51 190 -72 63
-21 141 -47 172 -58 31 -11 73 -22 94 -25 20 -4 39 -8 43 -10 3 -3 26 -7 50
-11 24 -3 53 -9 65 -13 11 -4 28 -7 36 -7 27 1 191 128 179 139 -2 2 -58 20
-124 41 -66 20 -172 57 -235 82 -132 51 -403 180 -408 194 -2 5 -9 9 -15 9
-21 0 -265 163 -287 191 -7 9 -100 59 -100 53 0 -2 18 -16 40 -30 22 -15 39
-29 36 -31 -4 -5 -108 51 -163 89 -23 15 -44 28 -48 28 -5 0 -128 92 -151 114
-6 6 -70 68 -142 138 -132 130 -195 178 -87 67 84 -87 45 -61 -70 46 -125 116
-142 131 -205 185 -90 77 -190 182 -238 248 -9 14 -27 35 -40 48 -13 13 -19
24 -15 24 4 0 4 4 -2 8 -19 14 -60 65 -45 57 13 -8 13 -7 0 12 -86 119 -151
210 -157 218 -5 6 -22 33 -40 60 -17 28 -43 70 -59 95 -15 25 -29 51 -30 59
-2 8 -7 17 -13 20 -11 7 -155 293 -166 331 -4 14 -11 30 -15 35 -9 11 -92 230
-116 302 -8 27 -19 57 -23 68 -27 64 -94 330 -93 368 1 9 -4 17 -9 17 -6 0 -8
4 -5 9 3 5 1 33 -4 62 -14 70 -18 95 -24 144 -10 78 -16 135 -32 300 -6 62 -6
483 0 545 3 30 8 84 11 120 3 36 8 76 10 90 2 14 7 50 10 80 4 30 8 57 10 60
2 3 6 30 10 60 4 30 8 57 10 60 2 3 6 25 10 50 4 25 8 47 10 51 2 3 7 21 10
40 9 57 74 284 111 389 18 55 34 104 34 109 0 5 5 22 11 38 6 15 10 30 11 33
0 3 6 16 13 30 7 14 20 41 28 60 8 19 27 62 43 94 15 33 27 66 27 73 0 7 4 13
9 13 4 0 8 4 8 9 0 15 84 185 92 189 5 2 8 10 8 17 0 7 16 42 36 77 20 34 45
79 56 98 11 19 27 44 34 55 16 22 18 39 5 30 -26 -16 178 286 266 395 7 8 25
32 41 52 16 20 51 53 78 74 80 60 105 90 199 231 25 39 72 82 191 180 22 17
50 41 64 53 14 11 36 30 48 41 43 37 35 11 -9 -34 -43 -43 -153 -163 -204
-222 -44 -51 -222 -289 -235 -315 -7 -14 -20 -30 -29 -37 -9 -7 -11 -13 -6
-13 6 0 6 -3 0 -8 -20 -14 -112 -169 -203 -344 -60 -115 -184 -411 -208 -498
-73 -261 -90 -310 -106 -310 -10 0 -18 -4 -18 -10 0 -5 -6 -10 -13 -10 -8 0
-22 -9 -31 -19 -17 -19 -15 -21 38 -60 46 -34 58 -49 70 -91 15 -51 15 -75 -3
-108 -6 -11 -6 -33 -1 -58 10 -46 52 -86 132 -127 31 -15 84 -46 120 -70 l65
-42 -23 -35 c-39 -60 -39 -76 -3 -84 84 -17 172 2 211 44 23 25 30 25 53 0 12
-13 15 -24 8 -32 -15 -19 -75 -208 -70 -221 2 -7 10 6 17 28 17 51 51 124 71
153 26 37 48 19 47 -39 0 -49 17 -109 32 -109 8 0 81 48 90 59 27 34 38 31 68
-16 16 -27 30 -62 30 -80 1 -42 6 -49 49 -69 21 -10 39 -28 45 -44 9 -27 52
-55 68 -45 5 3 23 -8 41 -25 32 -28 72 -41 66 -21 -4 19 37 69 60 74 25 5 44
-17 36 -41 -3 -7 -2 -20 2 -30 5 -9 9 -33 11 -52 2 -19 11 -68 20 -108 14 -61
14 -80 4 -118 -14 -49 -24 -52 -72 -25 -61 34 -152 24 -212 -24 -19 -15 -19
-15 5 -41 31 -34 95 -63 137 -64 17 0 32 -2 32 -5 0 -11 -56 -90 -70 -100 -8
-5 -48 -20 -89 -32 -253 -77 -480 -28 -640 137 -19 19 -28 27 -21 17 19 -25 7
-31 -29 -13 -46 24 -101 22 -155 -4 -56 -28 -56 -43 -1 -82 65 -46 150 -42
208 8 25 22 43 19 77 -14 19 -20 119 -84 134 -86 6 -1 16 -4 21 -8 11 -7 85
-27 125 -35 43 -8 173 -9 215 -2 22 4 56 10 76 13 20 3 43 8 51 11 18 7 72
-38 60 -49 -4 -4 -7 -11 -8 -14 -5 -66 -69 -162 -192 -288 -73 -76 -154 -144
-171 -144 -6 0 -11 -4 -11 -9 0 -5 -8 -11 -17 -15 -10 -3 -38 -17 -63 -30 -24
-14 -48 -22 -52 -20 -4 3 -8 1 -8 -4 0 -9 -42 -22 -85 -27 -11 -1 -33 -5 -48
-9 -28 -7 -28 -6 -20 31 10 49 6 108 -8 136 -28 53 -128 121 -149 100 -3 -2
-5 -33 -6 -68 -1 -49 3 -72 20 -99 22 -37 81 -86 102 -86 7 0 16 -5 20 -11 6
-11 -119 -8 -176 5 -78 17 -119 32 -149 54 -46 34 -91 82 -91 97 0 7 -7 18
-15 25 -13 11 -14 10 -9 -6 12 -31 46 -77 77 -104 16 -14 39 -33 50 -43 11 -9
28 -17 37 -17 9 0 20 -3 24 -7 4 -4 40 -15 79 -24 88 -21 223 -22 303 -3 32 8
67 17 77 19 24 6 134 64 187 99 64 43 84 60 188 164 52 51 95 92 96 90 0 -2 9
-18 18 -36 22 -41 22 -56 3 -86 -16 -25 -36 -112 -27 -121 3 -3 7 -15 9 -26 4
-25 31 -64 66 -97 l25 -23 22 30 c12 17 18 31 14 31 -3 0 -2 6 4 13 11 13 12
16 12 49 0 38 17 7 46 -82 14 -47 36 -103 47 -125 23 -46 89 -114 164 -168 59
-43 143 -132 143 -152 0 -7 3 -15 8 -17 25 -11 80 -190 78 -256 -1 -17 2 -32
5 -32 4 0 5 -19 4 -42 -1 -24 0 -47 3 -52 3 -5 6 -36 8 -70 2 -33 5 -79 8
-101 2 -22 6 -107 10 -190 13 -292 15 -321 31 -390 32 -147 44 -185 60 -185 7
0 43 -17 81 -38 38 -21 74 -39 79 -41 6 -1 30 -11 55 -22 138 -62 139 -62 153
-47 23 22 37 56 31 71 -3 8 -1 18 5 22 18 11 12 22 -18 35 -42 17 -47 46 -9
54 30 6 79 51 77 70 -5 46 0 51 57 54 61 3 127 31 144 61 27 52 4 124 -62 193
l-45 47 31 -5 c17 -3 63 -7 103 -9 62 -2 77 1 106 21 43 29 54 53 73 174 23
147 72 254 159 346 35 38 66 66 68 64 3 -3 12 -41 21 -85 22 -102 22 -105 35
-137 6 -16 9 -28 7 -28 -2 0 4 -27 14 -60 10 -33 16 -60 14 -60 -3 0 0 -8 5
-19 6 -10 13 -33 16 -52 3 -19 15 -68 25 -109 20 -80 29 -122 35 -157 2 -12 6
-27 10 -33 4 -6 9 -27 11 -48 3 -20 7 -45 10 -54 3 -10 7 -30 10 -44 3 -14 12
-56 20 -93 9 -36 18 -74 20 -85 4 -22 14 -35 14 -18 0 6 13 33 29 60 73 124
155 276 233 432 35 69 66 127 71 128 4 2 7 8 7 13 0 5 25 61 55 124 30 62 55
118 55 124 0 5 4 12 9 15 4 3 2 -20 -5 -52 -17 -69 -22 -93 -30 -129 -3 -16
-11 -53 -19 -83 -8 -30 -17 -69 -20 -87 -20 -118 -133 -453 -206 -611 -11 -24
-27 -62 -36 -85 -25 -64 -225 -460 -240 -475 -7 -7 -13 -18 -13 -23 0 -10
-149 -260 -160 -269 -3 -3 -17 -23 -30 -45 -83 -140 -238 -295 -390 -390 -48
-30 -233 -128 -238 -126 -1 1 -19 -6 -39 -14 -113 -48 -390 -124 -543 -149
-14 -3 -25 -5 -25 -6 0 -1 -15 -3 -34 -6 -19 -2 -46 -6 -60 -9 -14 -3 -55 -10
-91 -16 -62 -10 -86 -18 -62 -20 7 -1 15 -2 20 -3 4 -1 27 -6 52 -10 25 -5 54
-10 65 -12 110 -22 465 -21 575 1 36 7 69 13 120 20 36 5 145 32 322 79 73 19
238 83 238 91 0 6 22 45 49 86 50 75 139 172 214 231 l40 32 -50 -74 c-42 -61
-183 -327 -183 -344 0 -3 -13 -33 -29 -68 -16 -35 -55 -130 -86 -213 -82 -215
-86 -221 -180 -268 -63 -32 -96 -38 -219 -43 -107 -4 -186 9 -269 45 l-48 21
22 -33 c53 -75 142 -133 246 -160 71 -19 214 -15 288 8 33 10 62 19 65 20 73
19 197 106 245 171 39 52 54 72 85 111 8 10 31 41 50 68 19 28 38 52 42 53 4
2 8 10 8 17 0 7 4 15 8 17 4 2 43 49 86 105 l78 103 -15 47 c-58 186 -52 282
23 366 14 16 33 33 43 39 17 9 17 8 3 -21 -27 -52 -36 -140 -21 -211 4 -19 8
-39 9 -45 9 -44 92 -189 153 -267 19 -24 173 -176 300 -298 72 -69 93 -99 133
-195 22 -53 21 -192 -3 -255 -11 -30 -25 -58 -31 -62 -8 -6 -8 -8 1 -8 17 0
125 107 160 160 46 69 65 119 67 185 5 113 -51 221 -211 405 -12 14 -31 36
-43 50 -12 14 -36 42 -53 63 -18 22 -42 51 -55 65 -26 32 -96 162 -86 162 3 0
2 6 -4 13 -18 22 -29 129 -18 189 10 60 72 208 87 208 5 0 9 7 9 15 0 9 7 18
15 21 8 4 15 10 15 16 0 14 62 88 74 88 8 0 8 -3 0 -8 -13 -9 -53 -103 -68
-161 -11 -45 -13 -133 -2 -178 27 -122 150 -265 336 -392 100 -69 265 -167
335 -202 28 -13 52 -27 55 -30 3 -3 27 -14 53 -24 55 -21 85 -57 88 -106 3
-46 -19 -146 -42 -191 -11 -21 -19 -40 -19 -43 0 -13 67 40 122 96 147 149
113 276 -102 381 -90 44 -91 45 -185 78 -115 41 -189 99 -220 173 -14 34 -14
40 0 67 19 37 30 38 49 2 34 -62 130 -143 216 -181 30 -13 64 -28 75 -32 33
-15 144 -49 152 -48 4 1 10 0 13 -1 11 -4 46 -12 75 -17 17 -2 37 -7 45 -10 8
-3 33 -8 55 -10 22 -2 56 -8 75 -12 63 -13 385 -4 491 14 13 2 46 7 73 10 27
3 51 7 55 9 3 2 24 7 46 10 92 14 359 93 330 97 -32 4 -52 3 -67 -4 -10 -4
-18 -4 -18 0 0 4 -13 8 -29 8 -16 0 -27 -3 -24 -7 2 -5 -7 -4 -21 2 -16 6 -27
6 -31 -1 -4 -5 -11 -6 -17 -3 -6 4 -63 9 -127 10 -107 3 -246 11 -246 14 0 0
-18 3 -40 5 -106 9 -291 37 -390 59 -5 1 -26 6 -45 10 -97 21 -332 106 -350
126 -3 3 -23 14 -44 25 -57 29 -206 178 -258 260 -82 127 -182 366 -203 487
-3 17 -8 35 -10 38 -3 4 -7 25 -10 46 -4 22 -8 47 -11 56 -6 20 -9 37 -24 130
-6 37 -10 71 -9 75 1 4 1 21 0 36 -1 35 -15 27 -38 -21 -22 -48 -121 -194
-170 -252 -55 -64 -169 -180 -233 -235 -30 -26 -67 -58 -82 -70 -14 -13 -61
-49 -105 -80 l-78 -57 75 74 c80 79 122 129 160 193 13 22 26 42 29 45 16 14
163 277 213 380 76 158 163 371 197 485 7 22 15 47 18 55 8 18 7 15 22 70 7
25 14 52 16 60 2 8 8 35 14 60 7 25 13 53 16 63 2 10 6 26 9 35 3 9 7 28 10
42 2 14 12 54 21 90 9 36 18 72 20 81 2 9 12 47 24 85 11 38 22 80 25 94 3 14
8 36 11 50 31 133 25 256 -17 370 -24 63 -151 309 -178 345 -16 21 -98 191
-105 220 -14 51 -15 58 -15 105 -2 90 20 135 120 255 160 193 163 201 105 345
l-37 93 28 23 c16 13 52 39 80 58 28 19 56 42 63 50 8 9 18 16 23 16 9 0 54
44 157 155 l55 58 15 -22 c16 -25 141 -148 181 -179 37 -29 92 -42 108 -26 6
7 12 17 12 22 0 5 21 9 48 10 26 1 63 2 82 3 19 1 60 -1 91 -5 50 -6 62 -4
115 23 32 17 83 35 113 41 70 13 114 -8 119 -57 4 -36 18 -42 89 -39 32 1 59
-4 79 -16 31 -18 31 -19 29 -96 -3 -92 -30 -170 -82 -236 -19 -25 -38 -46 -42
-46 -3 0 -17 -10 -31 -23 -44 -41 -136 -79 -202 -84 -35 -3 -65 -7 -68 -10 -8
-8 154 0 170 8 8 4 41 20 74 35 32 16 77 45 100 65 l42 37 24 -54 c14 -30 29
-54 34 -54 5 0 7 -3 3 -6 -3 -3 18 -30 46 -61 36 -38 51 -61 49 -77 -2 -12 6
-30 17 -40 11 -10 18 -23 15 -30 -2 -6 7 -64 21 -129 14 -64 25 -129 25 -145
0 -23 -29 -123 -57 -192 -3 -8 -7 -26 -8 -40 -1 -14 -6 -52 -11 -85 -14 -105
-9 -188 14 -245 5 -14 8 -28 5 -32 -2 -5 1 -8 7 -8 6 0 9 -4 5 -10 -3 -5 15
-50 40 -101 26 -50 44 -93 41 -96 -2 -3 -1 -16 4 -29 6 -14 6 -26 0 -29 -5 -3
-7 -11 -5 -18 2 -7 6 -41 9 -77 5 -68 14 -93 72 -218 19 -41 34 -75 34 -77 0
-2 5 -16 11 -32 6 -15 13 -46 14 -69 4 -59 16 -123 24 -128 3 -2 28 14 53 37
26 23 69 60 95 82 63 53 285 276 345 345 25 30 55 65 66 78 11 13 44 55 73 93
29 38 57 69 62 69 4 0 6 4 3 8 -3 5 6 20 20 35 13 14 24 28 24 31 0 3 24 41
53 84 30 43 73 111 97 152 37 64 44 71 55 57 17 -24 28 -21 58 12 53 60 66
103 53 183 -5 25 -4 53 1 62 7 13 13 5 27 -34 34 -94 105 -138 213 -131 17 1
21 6 17 23 -3 13 -6 28 -7 33 -7 31 -50 87 -84 108 -39 24 -49 27 -115 27 -21
0 -38 3 -38 6 0 17 33 64 45 64 21 0 112 93 128 132 24 56 29 87 7 39 -27 -57
-71 -112 -109 -134 -23 -14 -31 -15 -32 -5 0 7 -2 25 -4 41 -2 17 1 27 9 27
21 0 74 63 89 105 22 63 12 119 -32 185 -8 12 -16 9 -45 -19 -28 -27 -35 -30
-32 -15 2 10 7 38 11 61 12 73 88 211 163 295 15 16 39 43 53 59 25 28 28 40
54 224 12 84 21 186 30 358 4 85 6 83 -60 91 -22 2 -51 7 -65 11 -14 4 -31 7
-39 7 -10 1 -9 5 4 14 46 34 3 105 -134 227 -47 41 -78 87 -91 132 -9 34 -24
61 -51 95 -46 58 -60 152 -19 130 10 -5 33 -9 51 -7 27 2 39 -5 74 -43 46 -51
106 -140 123 -185 11 -30 19 -69 27 -134 6 -49 25 -103 44 -124 19 -22 77 -19
115 7 20 12 23 22 21 58 -12 160 -16 217 -20 243 -2 17 -6 55 -10 86 -3 31
-16 112 -29 180 -14 75 -19 129 -14 135 5 8 2 18 -9 29 -9 10 -18 25 -19 34
-4 40 -107 389 -123 416 -3 6 -6 15 -7 20 -3 11 -45 114 -76 185 -11 25 -49
104 -85 177 l-65 132 -51 -3 c-36 -2 -72 4 -116 21 -87 33 -125 34 -205 6 -73
-26 -110 -26 -61 -1 43 23 80 68 97 119 8 24 19 44 24 44 25 2 83 28 79 36 -3
4 -24 13 -45 19 -22 6 -40 16 -40 21 0 6 6 9 14 6 7 -3 17 -2 22 3 5 4 26 13
47 20 40 13 44 21 23 47 -8 10 -33 43 -55 73 -22 30 -44 60 -48 65 -5 6 -24
30 -43 55 -19 24 -42 52 -50 61 -8 9 -35 40 -60 69 -25 29 -53 59 -62 68 -10
9 -18 20 -18 25 0 23 377 -355 490 -492 19 -23 43 -52 53 -64 71 -83 236 -303
244 -324 3 -7 9 -13 14 -13 4 0 -9 26 -30 58 -21 31 -44 68 -51 81 -7 14 -17
30 -22 35 -5 6 -40 56 -78 111 -69 100 -88 125 -145 196 -16 20 -46 56 -65 80
-127 157 -347 381 -489 495 -13 10 -28 24 -35 30 -6 5 -45 36 -86 67 -41 31
-79 60 -85 64 -63 51 -354 223 -376 223 -5 0 -9 5 -9 10 0 6 -5 10 -11 10 -6
0 -24 9 -40 21 -46 33 -170 99 -185 99 -8 0 -14 5 -14 10 0 6 -4 10 -9 10 -15
0 -292 130 -301 141 -19 22 -430 159 -479 159 -11 0 -21 4 -21 9 0 6 -8 9 -17
9 -17 0 -40 3 -103 17 -44 10 -174 32 -190 33 -8 0 -33 3 -55 6 -82 12 -112
16 -175 22 -77 7 -267 14 -365 14 -38 0 -78 0 -87 0 -10 0 -24 0 -30 0 -37 1
-254 -9 -328 -15 -117 -10 -240 -12 -240 -3 0 5 8 8 18 8 10 0 22 3 26 7 4 4
19 8 34 10 92 8 142 13 177 17 22 2 79 6 128 7 90 3 124 17 39 16 -27 0 -53 2
-58 5 -8 5 -131 7 -137 2z m181 -145 c81 11 431 1 567 -14 22 -3 63 -7 90 -10
28 -3 61 -7 75 -9 14 -3 45 -8 70 -11 63 -8 81 -11 115 -18 17 -4 44 -9 60
-12 17 -3 41 -7 55 -10 14 -3 36 -8 50 -11 14 -3 71 -17 127 -30 57 -14 106
-23 111 -20 11 7 281 -84 397 -134 28 -11 68 -29 90 -38 48 -20 338 -165 380
-189 17 -10 32 -21 33 -26 2 -4 7 -5 11 -2 5 2 16 -2 26 -9 17 -12 14 -15 -31
-41 -27 -15 -89 -54 -138 -86 -55 -36 -100 -59 -117 -59 -15 0 -31 -5 -34 -10
-4 -6 -10 -8 -14 -5 -5 2 -26 -11 -47 -30 -36 -31 -37 -34 -16 -35 13 0 20 -4
17 -10 -4 -6 -11 -8 -16 -5 -5 4 -12 0 -15 -9 -8 -22 24 -83 56 -106 l28 -20
-54 -55 c-29 -31 -53 -59 -53 -63 1 -4 0 -10 -1 -14 -5 -16 -8 -29 -9 -50 -2
-22 -3 -22 -11 -3 -7 17 -9 14 -10 -15 -1 -19 -3 -42 -5 -50 -2 -8 -5 -24 -7
-35 -2 -11 -8 -27 -13 -36 -11 -18 -93 -74 -100 -68 -2 3 -6 19 -9 36 -5 25
-2 33 13 38 11 3 19 14 19 23 0 9 3 25 6 34 5 12 0 22 -19 34 -14 9 -31 26
-37 38 -12 22 -19 25 65 -29 15 -9 27 -14 27 -10 0 4 6 2 14 -4 11 -10 16 -8
21 8 22 70 8 151 -36 204 -31 38 -114 86 -126 73 -12 -12 -13 -148 -1 -171 11
-19 10 -19 -9 -2 -11 9 -25 17 -32 17 -22 0 -23 29 -2 51 29 32 26 39 -14 39
-19 0 -35 5 -35 10 0 6 5 10 10 10 6 0 10 4 10 9 0 5 -18 2 -39 -6 -29 -11
-41 -22 -44 -42 -3 -14 -2 -30 3 -35 5 -5 6 -15 3 -24 -5 -11 -3 -13 7 -7 10
6 12 2 8 -19 -5 -24 -2 -26 26 -26 28 0 32 -4 34 -30 2 -26 -1 -30 -23 -30
-19 0 -26 -7 -31 -27 -4 -16 -11 -34 -17 -40 -6 -9 -6 -13 2 -13 6 0 11 -11
11 -25 0 -16 -6 -25 -15 -25 -8 0 -15 -4 -15 -10 0 -5 8 -10 18 -10 11 0 27
-16 41 -40 22 -40 22 -40 2 -40 -32 0 -25 -26 12 -40 37 -15 102 -78 112 -109
7 -22 -26 -99 -49 -113 -6 -4 -34 -8 -63 -8 l-51 0 12 43 c7 23 12 53 11 67
-3 51 -39 140 -58 140 -25 0 -104 -99 -110 -138 -2 -12 -6 -24 -8 -27 -3 -3
-4 -25 -2 -49 4 -37 1 -44 -16 -49 -13 -3 -22 1 -26 12 -12 38 -109 126 -127
115 -13 -8 -38 -74 -44 -114 -3 -19 -7 -41 -9 -47 -2 -7 -1 -13 3 -13 4 0 8
-12 7 -27 0 -16 6 -41 13 -56 22 -44 132 -150 132 -126 0 6 7 4 15 -5 18 -18
19 -38 3 -54 -15 -15 -6 -24 24 -26 19 -1 22 -6 20 -31 -2 -17 -7 -34 -12 -39
-5 -5 -6 -15 -3 -22 9 -25 -6 -15 -60 39 -29 28 -82 77 -117 107 -141 121
-300 298 -354 395 -9 17 -25 44 -36 60 -31 50 -81 184 -100 273 -25 115 -19
288 12 346 7 13 7 16 -1 12 -26 -16 -46 -121 -45 -241 0 -132 3 -152 40 -272
24 -81 100 -245 116 -251 4 -2 8 -8 8 -13 0 -5 12 -27 28 -48 15 -21 34 -49
42 -61 32 -47 80 -100 212 -235 134 -137 232 -252 225 -264 -6 -11 -34 -76
-40 -94 -6 -14 -11 -16 -27 -7 -11 6 -20 8 -20 5 0 -3 -10 -1 -22 6 -21 11
-21 11 -15 -69 l6 -80 -29 -12 c-42 -17 -79 -57 -107 -115 -13 -27 -33 -63
-43 -80 -11 -16 -39 -69 -63 -116 -45 -87 -49 -109 -31 -184 3 -16 8 -82 9
-145 3 -100 1 -118 -16 -135 -10 -11 -25 -36 -33 -56 -14 -33 -13 -37 14 -78
23 -34 27 -47 19 -62 -8 -15 -6 -19 8 -19 15 0 15 -2 4 -9 -12 -8 -13 -12 -1
-26 12 -14 7 -22 -35 -65 -26 -26 -68 -59 -94 -71 -25 -13 -48 -26 -51 -29
-19 -19 -152 -53 -209 -53 -95 -1 -110 3 -141 43 -74 93 -72 144 10 287 64
111 104 214 115 298 5 46 9 123 5 135 -1 3 -3 22 -5 42 -7 66 -48 129 -117
181 -43 33 -153 69 -192 64 -117 -17 -209 -76 -254 -162 -19 -37 -39 -121 -37
-155 11 -170 45 -276 136 -426 35 -57 57 -115 54 -139 -9 -68 -64 -153 -105
-164 -86 -23 -218 4 -335 69 -54 29 -111 79 -255 221 -102 101 -206 202 -231
225 -122 110 -141 147 -178 339 -22 113 8 366 54 455 9 17 13 30 10 30 -4 0 3
13 14 29 12 16 21 32 21 37 0 11 59 103 100 154 19 25 88 99 154 165 65 66
137 142 160 169 22 27 46 54 51 60 27 30 115 165 115 176 0 6 5 10 10 10 6 0
10 4 10 9 0 5 16 44 36 86 66 142 89 241 89 395 0 114 -9 179 -30 221 -8 14
-11 29 -8 33 4 3 1 6 -5 6 -15 0 -15 -6 -1 -33 32 -59 32 -273 0 -392 -18 -69
-96 -247 -122 -279 -5 -6 -36 -49 -70 -95 -66 -90 -181 -211 -297 -310 -39
-34 -91 -82 -114 -106 -43 -45 -58 -49 -58 -14 0 58 -87 211 -171 301 -87 92
-149 172 -149 191 0 4 6 7 13 7 6 0 33 11 59 24 39 19 48 20 53 8 5 -15 -16
-37 -47 -47 -26 -9 -30 -33 -6 -46 14 -8 27 -8 43 -1 18 9 26 7 39 -7 9 -10
16 -21 16 -25 0 -5 17 -23 38 -42 l37 -33 17 22 c23 29 39 78 42 128 4 54 -33
128 -87 174 -27 23 -35 35 -24 35 9 0 17 5 17 10 0 6 0 13 1 18 1 12 -44 19
-73 11 -31 -8 -36 2 -13 24 14 15 51 22 160 32 138 13 173 17 220 29 6 1 30
11 55 22 73 33 96 76 60 109 -16 14 -32 17 -82 13 -53 -4 -57 -4 -28 4 19 6
41 12 48 14 20 6 14 23 -11 29 -31 8 -58 55 -61 109 -2 43 -45 126 -65 126 -4
0 -28 -15 -52 -33 -59 -45 -87 -59 -134 -68 -36 -7 -38 -6 -20 7 14 10 16 17
8 22 -8 5 -3 20 17 49 26 38 27 43 11 48 -10 3 -28 15 -42 28 -13 12 -26 22
-29 23 -3 0 -16 3 -30 7 -14 3 -43 8 -65 11 -22 3 -48 8 -57 11 -19 8 -68 -38
-68 -62 0 -8 -23 -37 -51 -64 -49 -47 -50 -50 -36 -72 13 -20 12 -25 -9 -56
-13 -19 -21 -37 -19 -41 3 -4 -9 -13 -26 -21 -30 -12 -33 -11 -53 16 -24 34
-72 78 -81 75 -3 -1 -18 6 -32 15 -15 10 -48 18 -77 19 l-51 1 4 -39 c1 -22 7
-50 12 -63 8 -21 6 -23 -14 -19 -12 3 -50 17 -85 31 -34 14 -85 29 -112 32
-27 3 -47 10 -44 14 3 5 -7 26 -21 46 l-25 38 26 20 c42 31 235 135 252 135 8
0 12 6 8 15 -4 12 5 15 54 15 59 0 140 24 140 41 0 5 -9 9 -19 9 -11 0 -22 4
-25 9 -4 5 9 6 29 1 20 -4 45 -5 58 -2 27 7 49 27 39 36 -3 4 13 4 37 0 28 -4
42 -3 38 3 -4 6 14 8 48 5 53 -4 54 -4 99 42 49 51 50 45 -14 69 -8 3 15 4 53
3 42 -2 77 2 94 11 23 12 32 11 70 -3 25 -10 42 -22 39 -29 -2 -7 6 -11 22
-10 15 1 35 -3 44 -9 16 -9 16 -12 1 -28 -9 -10 -22 -18 -29 -18 -7 0 -19 -6
-26 -13 -14 -15 -20 -17 -43 -17 -9 0 -12 -6 -9 -15 5 -12 0 -15 -22 -13 -62
4 -155 -14 -164 -33 -7 -12 -6 -20 2 -26 17 -11 108 -12 102 -1 -3 4 -1 8 5 8
6 0 15 -9 21 -19 13 -25 69 -44 165 -56 114 -15 131 -10 94 24 l-22 20 31 -3
c17 -3 39 2 49 10 17 13 16 16 -15 43 -26 22 -30 30 -19 39 18 15 79 6 89 -13
11 -19 32 -19 48 0 11 13 16 9 41 -25 45 -62 116 -102 205 -116 37 -6 42 5 38
78 -6 122 -93 218 -228 254 -54 14 -66 12 -66 -14 0 -12 -3 -13 -12 -4 -7 7
-18 12 -25 12 -7 0 -42 14 -76 30 -35 17 -71 30 -80 30 -30 0 -46 -11 -39 -28
5 -15 4 -15 -21 1 -14 9 -38 17 -52 17 -15 0 -24 4 -20 9 23 38 -178 8 -217
-33 -20 -20 -21 -20 -13 -1 19 51 18 53 -18 51 -36 -3 -108 -36 -135 -62 -21
-21 -5 -34 54 -43 49 -7 49 -7 17 -15 -18 -4 -33 -11 -33 -14 0 -4 -18 -16
-40 -26 -22 -11 -40 -23 -40 -28 0 -5 -5 -6 -10 -3 -7 4 -7 12 0 25 14 26 14
26 -29 24 -32 -1 -41 3 -45 20 -4 13 1 26 12 34 16 12 16 14 -5 31 -32 26 -86
18 -126 -20 -20 -18 -20 -53 1 -55 25 -3 26 -5 7 -16 -11 -6 -31 -12 -45 -14
-14 -1 -33 -5 -42 -9 -13 -5 -18 -2 -18 9 0 10 -9 16 -25 16 -14 0 -25 -4 -25
-8 0 -5 -6 -9 -12 -10 -7 -1 -29 -3 -48 -6 -32 -4 -33 -3 -15 11 34 25 148 90
205 116 156 73 299 135 330 145 19 6 70 13 112 16 42 3 99 11 125 17 26 6 55
12 63 14 8 2 16 4 18 5 2 3 7 4 40 15 12 4 22 11 22 15 0 5 8 11 18 13 9 3
-12 5 -48 6 -64 2 -68 13 -9 25 13 2 36 9 52 15 15 6 27 8 27 5 0 -3 6 -2 13
3 6 4 17 8 22 10 6 1 19 4 30 6 162 38 213 49 285 62 47 8 101 17 120 19 19 3
35 5 35 6 0 2 198 20 273 25 23 1 46 5 50 9 3 4 8 3 10 -2 1 -4 24 -6 50 -3z
m-842 -512 c4 -3 -1 -10 -10 -13 -11 -4 -24 0 -34 10 -16 16 -15 17 10 14 15
-2 30 -7 34 -11z m-36 -94 c0 -5 -13 -14 -30 -20 -16 -6 -30 -10 -30 -8 0 2
-2 10 -5 17 -4 10 4 15 30 16 19 2 35 -1 35 -5z m3369 -92 l25 -19 -28 -23
c-32 -29 -38 -55 -20 -91 16 -31 42 -48 73 -48 12 0 21 -5 21 -11 0 -8 4 -8
13 -1 7 6 22 11 32 10 21 -1 84 10 94 17 4 2 17 -3 30 -10 23 -12 20 -13 -41
-24 -35 -6 -74 -11 -86 -11 l-22 0 21 -36 20 -37 -30 6 c-59 12 -94 -20 -96
-85 0 -24 -25 -65 -25 -42 0 5 -4 4 -8 -2 -4 -6 -25 -9 -48 -6 -35 3 -42 8
-52 35 -6 18 -22 43 -35 57 -15 16 -23 36 -21 50 1 14 3 31 3 37 1 7 11 15 24
18 29 8 29 36 0 67 -35 39 -6 96 77 151 33 21 50 21 79 -2z m-4829 -186 c-13
-14 -26 -23 -28 -20 -4 4 38 44 47 45 3 0 -6 -11 -19 -25z m4404 -30 c4 -10
-1 -15 -16 -15 -17 0 -18 2 -8 15 7 8 14 15 15 15 2 0 5 -7 9 -15z m86 -132
c14 -13 28 -24 33 -24 26 -5 33 -5 42 0 27 15 31 6 12 -26 l-20 -35 -70 4
c-53 3 -72 8 -83 23 -8 11 -10 23 -5 29 5 6 12 29 16 51 11 69 15 72 33 35 9
-19 28 -45 42 -57z m-4894 -28 c-9 -9 -16 -13 -16 -8 0 5 5 14 12 21 6 6 14
10 16 7 2 -2 -3 -11 -12 -20z m1171 -125 c12 0 11 -5 -2 -28 -17 -28 -38 -33
-81 -18 -15 4 -21 15 -21 33 0 15 -6 29 -12 31 -15 5 -14 49 2 55 6 2 32 -13
56 -35 24 -21 50 -38 58 -38z m3395 -24 c6 4 5 -2 -2 -15 -15 -29 -29 -18 -22
16 4 20 7 23 10 10 2 -9 8 -14 14 -11z m-3112 -211 c0 -2 -10 -10 -22 -16 -21
-11 -22 -11 -9 4 13 16 31 23 31 12z m4304 -93 c-39 -39 -56 -80 -57 -131 0
-62 6 -101 15 -101 4 0 5 -7 2 -15 -4 -8 -11 -12 -18 -9 -6 3 -3 -1 6 -9 16
-12 13 -14 -27 -15 -46 -2 -61 12 -25 23 20 6 28 25 11 25 -13 0 -45 71 -35
79 5 3 9 11 9 16 1 32 20 79 41 102 13 14 22 29 19 33 -10 17 45 41 73 32 8
-3 4 -13 -14 -30z m-675 -106 c31 -28 81 -61 81 -52 0 3 15 -3 33 -12 24 -14
37 -32 52 -74 11 -30 25 -62 32 -70 10 -11 9 -20 -4 -44 -38 -70 -42 -81 -45
-110 -2 -36 18 -112 38 -138 12 -17 17 -18 39 -6 28 15 73 79 79 112 3 13 5
24 5 26 1 2 8 -4 17 -12 22 -23 34 -20 34 9 0 16 7 28 19 33 27 10 26 18 -8
50 -17 15 -32 41 -34 58 -5 29 -3 31 27 30 17 -1 46 -9 64 -19 l33 -18 10 31
c6 16 17 30 25 30 11 0 11 -6 3 -27 -7 -20 -7 -28 3 -34 21 -14 -39 -115 -114
-191 -37 -37 -72 -68 -77 -68 -6 0 -11 -3 -11 -7 0 -15 -129 -90 -221 -129
-54 -22 -63 -24 -83 -11 -19 13 -68 28 -106 32 -48 5 -80 19 -85 35 -4 11 -12
17 -21 13 -21 -8 -18 23 5 46 24 24 32 98 12 110 -8 5 -10 14 -7 20 4 6 0 11
-9 11 -9 0 -23 6 -31 14 -8 8 -24 13 -37 10 -12 -2 -47 -6 -77 -9 -30 -2 -77
-6 -104 -9 -26 -3 -51 -4 -56 -1 -7 4 7 69 31 145 17 52 81 180 91 180 4 0 8
6 8 14 0 36 124 43 161 10 23 -21 20 -25 -28 -31 -43 -6 -64 -15 -111 -50
l-32 -24 27 -23 c49 -40 96 -59 148 -60 48 0 122 26 137 48 10 16 57 -10 70
-39 6 -14 15 -25 19 -25 4 0 8 -8 7 -17 0 -10 3 -28 5 -40 4 -16 -5 -39 -29
-74 -19 -28 -35 -58 -35 -68 -5 -63 -3 -81 13 -121 30 -71 39 -75 78 -38 67
66 86 169 44 249 -13 25 -14 37 -5 56 6 14 9 40 5 59 -6 35 3 43 24 22 7 -7
12 -8 12 -2 0 15 -39 54 -54 54 -8 0 -20 7 -27 16 -8 9 -31 28 -53 42 -22 13
-50 35 -64 47 l-24 22 34 21 c42 26 38 26 67 -2z m-3586 -64 c30 -43 61 -85
69 -93 95 -99 159 -237 170 -364 3 -30 -14 -102 -29 -124 -30 -46 -70 -127
-93 -187 -24 -65 -23 -59 -45 -164 -16 -73 -25 -98 -25 -69 0 8 -35 84 -79
169 -44 87 -77 164 -75 175 5 25 5 160 0 200 -9 72 -18 124 -32 175 -9 30 -17
62 -18 70 -1 8 -15 41 -29 73 -33 71 -33 75 -1 83 17 4 22 10 16 16 -18 18 7
52 61 86 29 17 53 31 54 32 1 0 26 -35 56 -78z m3120 1 c-10 -16 -20 -30 -23
-33 -22 -19 -100 -218 -114 -288 -2 -11 -67 -52 -83 -52 -3 0 2 10 13 23 49
57 59 106 22 108 -13 1 -27 1 -31 0 -17 -3 -18 29 -2 63 17 35 170 185 203
198 30 12 33 9 15 -19z m-3352 -197 c20 -67 25 -91 34 -166 4 -36 7 -125 6
-147 -1 -8 -18 -1 -43 17 -24 16 -56 32 -72 36 l-29 7 26 -35 c35 -46 34 -51
-8 -31 -19 9 -35 20 -35 25 0 4 -6 8 -13 8 -7 0 -23 9 -35 20 -12 11 -23 20
-26 20 -3 0 -24 18 -48 39 -42 38 -43 41 -42 98 2 84 3 93 12 93 4 0 8 -18 7
-40 -1 -22 1 -40 3 -40 12 0 41 48 42 68 0 12 5 22 12 22 7 0 21 9 33 20 42
40 101 87 115 92 19 6 34 -20 61 -106z m4354 -66 c3 -5 2 -10 -4 -10 -18 0 0
-28 22 -35 12 -4 25 -7 30 -6 4 1 6 -4 5 -10 -2 -6 8 -13 21 -15 36 -6 36 -11
4 -28 -52 -26 -56 -39 -20 -67 44 -35 101 -52 144 -44 51 9 103 41 103 63 0
11 -37 37 -90 64 -19 9 -28 17 -20 18 9 0 33 -9 55 -20 22 -11 47 -20 56 -20
9 0 19 9 22 20 4 15 14 20 41 20 30 0 36 -4 37 -22 1 -13 3 -34 6 -48 7 -45 5
-63 -12 -135 -14 -55 -24 -66 -46 -55 -11 6 -46 12 -78 12 -46 1 -66 -4 -90
-21 -17 -12 -31 -19 -31 -15 0 4 -9 -5 -20 -18 -18 -23 -22 -25 -59 -15 l-40
11 33 23 c19 12 44 39 57 59 22 35 22 37 3 47 -26 15 -41 18 -99 21 -60 3
-103 -13 -140 -52 -23 -24 -33 -28 -54 -23 -42 12 -111 6 -122 -10 -5 -8 -9
-26 -9 -42 l0 -27 -71 4 c-61 3 -104 14 -71 17 7 1 16 2 21 3 5 0 51 29 102
63 112 73 221 178 256 248 28 54 45 67 58 45z m-1458 -119 c-12 -8 -28 -22
-35 -31 -11 -13 -12 -11 -7 10 16 62 14 60 40 48 l25 -11 -23 -16z m-3183
-105 c22 -44 98 -134 118 -141 10 -4 24 -12 31 -18 7 -7 21 -17 32 -23 31 -17
30 -34 -2 -29 -47 6 -185 35 -235 50 -25 7 -49 11 -52 8 -3 -4 -6 -1 -6 5 0 7
-8 12 -19 12 -10 0 -46 10 -80 23 l-61 23 51 19 c74 26 135 62 161 95 26 31
35 27 62 -24z m-154 -213 c30 -8 60 -19 66 -24 6 -5 14 -6 17 -3 3 3 12 2 19
-2 7 -5 18 -9 23 -11 14 -3 37 -9 120 -32 39 -10 105 -24 147 -31 43 -7 82
-18 87 -24 5 -6 27 -56 49 -111 36 -90 38 -101 23 -110 -9 -5 -18 -10 -21 -10
-3 -1 -23 -9 -45 -19 -65 -29 -254 -94 -325 -111 -63 -16 -203 -44 -240 -49
-25 -4 -67 -10 -95 -13 -87 -12 -447 -5 -560 11 -22 4 -55 8 -73 11 -18 2 -43
7 -55 12 -12 4 -24 7 -27 8 -3 0 -38 11 -79 24 l-73 24 5 52 c9 86 28 136 56
149 66 29 140 118 113 135 -19 12 37 56 86 68 54 14 54 3 0 -25 -43 -23 -36
-22 37 6 45 17 84 17 100 1 7 -7 5 -14 -6 -23 -29 -21 -58 -83 -60 -128 -2
-39 8 -108 16 -108 17 0 78 35 107 62 52 49 70 115 54 198 -2 14 -5 28 -5 31
-1 3 -12 4 -26 1 -14 -2 -25 0 -25 5 0 5 8 9 18 10 35 4 97 14 110 18 7 3 20
1 30 -4 26 -15 56 -24 66 -22 4 1 24 -3 43 -10 50 -16 65 -46 57 -110 -9 -80
-9 -91 9 -130 21 -46 41 -54 57 -23 7 13 28 34 47 46 49 34 81 107 77 176 -2
31 -8 60 -13 65 -6 6 -26 2 -53 -11 -49 -25 -59 -20 -47 24 l9 32 62 -5 c35
-2 88 -11 118 -20z m5227 -28 c2 -6 -8 -11 -22 -11 -25 0 -31 7 -18 20 10 9
36 3 40 -9z m87 -261 c6 -10 22 -34 35 -52 23 -33 23 -34 4 -51 -47 -45 -83
-49 -83 -10 0 11 -16 43 -35 72 -19 28 -35 54 -35 57 0 3 23 5 52 4 40 0 54
-5 62 -20z m92 -131 c20 -26 17 -30 -18 -36 -18 -3 -46 -9 -63 -13 -28 -7 -28
-5 15 29 54 42 50 41 66 20z m-4761 -123 c15 -41 36 -93 45 -115 34 -76 50
-118 48 -120 -2 -2 -30 -16 -63 -31 -33 -16 -87 -47 -120 -69 -61 -40 -227
-199 -281 -269 -30 -38 -31 -38 -59 -24 -25 14 -30 13 -47 -4 -14 -14 -23 -16
-38 -8 -11 6 -20 17 -20 25 0 16 -35 29 -51 19 -6 -3 -27 -8 -46 -10 -57 -5
-99 -23 -133 -55 -31 -30 -32 -31 -11 -45 17 -12 19 -18 9 -39 -6 -14 -15 -25
-20 -25 -4 0 -7 -3 -7 -7 7 -45 -33 -58 -80 -26 -19 13 -41 21 -49 18 -7 -3
-37 -8 -66 -11 -69 -8 -111 12 -122 58 -17 71 -4 163 32 237 26 56 32 95 19
151 -12 54 -65 130 -91 130 -10 0 -56 -61 -60 -80 -16 -70 -16 -70 -46 -70
-21 0 -31 6 -35 19 -3 13 -11 17 -24 14 -23 -6 -24 5 -4 31 8 11 15 28 15 37
0 34 131 119 215 139 6 1 21 6 34 11 30 12 147 29 236 35 39 2 88 7 110 10 22
3 47 5 55 6 8 0 38 5 65 10 28 5 62 11 77 13 15 2 44 8 65 14 21 6 49 12 63
15 48 9 65 14 150 42 47 15 90 28 95 30 6 1 28 10 50 21 49 24 53 21 90 -77z
m-1650 30 c6 -4 28 -13 50 -19 22 -7 47 -15 55 -18 8 -4 17 -7 20 -8 15 -4
126 -29 134 -29 17 -2 16 -21 -3 -45 -18 -24 -19 -24 -46 -7 -41 27 -126 32
-181 11 -28 -11 -49 -14 -55 -8 -5 5 -12 40 -16 76 -6 63 -5 67 13 61 10 -4
24 -10 29 -14z m438 -115 c-3 -9 -8 -14 -10 -11 -3 3 -2 9 2 15 9 16 15 13 8
-4z m1389 -298 c7 -8 29 -33 48 -57 41 -50 210 -250 225 -266 5 -6 37 -42 70
-80 125 -143 258 -284 268 -284 3 0 48 -32 99 -71 57 -43 93 -77 92 -87 -1 -9
-14 -43 -29 -76 -39 -85 -44 -154 -14 -203 12 -21 28 -41 33 -45 27 -18 -8
-15 -79 9 -70 22 -97 26 -216 26 -121 1 -138 3 -148 19 -10 16 -7 23 16 43 16
13 31 25 36 25 4 0 7 11 7 23 0 27 -36 49 -70 42 -21 -4 -50 -28 -52 -42 0 -4
-4 -18 -9 -31 -5 -13 -9 -28 -9 -33 0 -6 -4 -8 -9 -5 -11 7 4 66 28 110 50 88
42 145 -33 241 -43 56 -64 73 -121 100 -40 19 -62 23 -111 20 -58 -4 -61 -3
-57 18 20 118 19 124 -4 173 -13 27 -38 59 -56 72 l-32 23 -25 -56 c-22 -49
-48 -72 -51 -45 -1 6 -2 14 -3 19 0 5 -4 13 -8 17 -13 12 -9 35 12 64 11 15
22 47 25 71 5 37 1 58 -21 127 -3 10 -10 10 -32 -2 -28 -14 -91 -79 -93 -94
-4 -37 -11 -68 -17 -74 -14 -13 -79 -13 -101 1 -10 6 8 29 69 90 45 44 85 81
88 81 4 0 23 14 42 30 29 26 157 94 210 113 8 3 16 6 17 6 1 1 8 -5 15 -12z
m-697 -349 c-10 -34 -23 -44 -37 -30 -9 9 -7 16 7 32 24 27 38 25 30 -2z
m-1225 -623 c11 -13 10 -14 -4 -9 -9 3 -16 10 -16 15 0 13 6 11 20 -6z"/>
<path d="M5427 9623 c-1 -1 -94 -3 -206 -4 -189 -2 -311 -14 -385 -39 -17 -5
-49 -12 -71 -15 -82 -10 -115 -17 -115 -26 0 -5 8 -9 18 -10 41 -2 84 -8 88
-12 3 -3 -16 -8 -41 -11 -25 -4 -45 -11 -45 -15 0 -12 44 -19 67 -10 18 7 130
5 180 -3 11 -1 31 -16 43 -31 l23 -29 -22 -21 c-20 -19 -23 -20 -31 -6 -5 9
-18 26 -28 39 l-19 23 -36 -48 c-73 -95 -72 -202 1 -293 16 -21 20 -22 31 -8
16 19 59 23 44 4 -16 -21 5 -76 38 -100 17 -13 31 -22 32 -20 1 2 14 -1 29 -7
18 -7 29 -7 33 0 4 5 15 -1 25 -13 18 -23 18 -23 -14 -58 -17 -19 -39 -48 -47
-64 -16 -33 -19 -160 -3 -176 15 -15 88 24 132 70 53 53 67 121 47 223 -5 24
-4 37 3 37 6 0 13 13 17 28 4 20 21 37 60 60 31 19 52 38 49 45 -3 8 4 13 17
14 12 1 25 7 29 13 4 6 16 13 26 15 10 2 19 4 19 5 0 1 23 3 50 5 75 5 123 22
186 67 25 17 47 3 54 -35 4 -20 25 -55 49 -83 l42 -47 22 31 c30 41 52 96 52
126 0 22 7 28 48 39 26 8 48 13 50 12 2 -2 -8 -15 -22 -30 -39 -41 -60 -121
-57 -208 1 -28 2 -29 44 -22 151 25 241 128 249 285 2 62 0 64 -72 43 -54 -15
-53 -15 -45 -4 7 12 -26 31 -63 37 -63 12 -55 23 16 24 100 0 153 30 136 75
-5 11 1 15 22 15 16 0 36 5 44 10 12 8 8 10 -15 11 l-30 1 32 10 c28 9 34 17
42 53 5 23 -44 22 -76 -2 -19 -14 -34 -19 -38 -13 -4 6 -12 7 -18 3 -7 -4 -6
1 2 10 13 16 10 17 -30 16 -24 -1 -71 2 -104 7 -33 6 -89 9 -125 8 -36 -1 -87
-2 -115 -3 -27 0 -110 0 -183 2 -73 1 -134 2 -135 0z m-397 -267 c0 -7 -8 -13
-17 -13 -10 0 -27 -1 -37 -2 -28 -2 -8 -19 28 -24 30 -4 45 -20 28 -31 -21
-13 -69 -15 -69 -3 0 6 -3 26 -7 44 -7 31 -6 32 31 36 21 2 39 4 41 5 1 1 2
-4 2 -12z m940 -8 c0 -5 5 -6 10 -3 6 3 20 3 31 0 38 -12 3 -20 -70 -17 -73 4
-87 12 -50 29 25 11 79 5 79 -9z"/>
<path d="M5472 8967 c-17 -20 -16 -128 1 -168 9 -20 29 -49 44 -65 35 -37 114
-76 128 -63 5 5 9 42 9 82 1 97 -29 151 -104 193 -19 10 -37 21 -40 24 -10 10
-28 9 -38 -3z"/>
<path d="M4575 8961 c-3 -2 -15 -6 -27 -8 -30 -5 -33 -10 -18 -28 7 -8 9 -15
6 -15 -16 0 57 -90 88 -110 36 -22 134 -43 151 -32 10 7 16 8 49 10 43 4 -22
118 -90 158 -40 24 -145 40 -159 25z"/>
<path d="M5967 8953 c-52 -15 -111 -69 -133 -122 -8 -18 -14 -37 -14 -41 0 -4
23 -12 51 -17 102 -21 200 27 247 121 26 53 22 65 -28 67 -14 0 -37 2 -51 3
-14 2 -46 -3 -72 -11z"/>
<path d="M4572 8733 c-5 -10 -8 -34 -7 -53 10 -135 91 -220 234 -245 l34 -6
-5 68 c-6 75 -26 124 -70 166 -30 29 -98 64 -134 70 -10 1 -24 6 -31 10 -7 4
-16 0 -21 -10z"/>
<path d="M6027 8730 c-86 -27 -140 -68 -173 -133 -18 -34 -29 -153 -15 -161
18 -12 102 14 151 46 33 21 55 46 73 82 28 54 41 133 29 165 -7 18 -9 18 -65
1z"/>
<path d="M6503 8743 c-7 -2 -13 -11 -13 -19 0 -8 -13 -17 -30 -20 -31 -7 -42
-37 -17 -47 9 -4 8 -8 -3 -16 -8 -6 -11 -11 -6 -11 6 0 1 -6 -10 -14 -17 -13
-18 -16 -3 -31 15 -15 32 -13 99 13 8 3 18 6 22 6 16 2 30 25 35 57 3 19 9 39
13 44 17 20 -55 51 -87 38z"/>
<path d="M6942 8720 c0 -14 2 -19 5 -12 2 6 2 18 0 25 -3 6 -5 1 -5 -13z"/>
<path d="M5189 8636 c-2 -2 -25 -6 -51 -9 -83 -10 -141 -54 -172 -129 -10 -24
-22 -51 -27 -60 -10 -19 4 -26 61 -29 81 -5 145 31 193 107 24 38 50 128 32
112 -5 -4 -13 -3 -20 2 -7 5 -14 8 -16 6z"/>
<path d="M5468 8629 c-15 -4 -30 -4 -34 0 -12 11 8 -63 27 -99 46 -87 113
-125 213 -121 22 0 42 3 44 6 3 3 -2 29 -11 58 -17 55 -73 122 -115 138 -48
18 -97 25 -124 18z"/>
<path d="M6029 8372 c-33 -123 7 -231 104 -282 25 -12 29 -12 38 0 31 49 33
155 4 211 -19 36 -67 84 -106 104 -27 14 -27 14 -40 -33z"/>
<path d="M4565 8388 c-69 -52 -99 -105 -99 -177 0 -60 19 -131 35 -131 23 0
98 62 119 97 27 46 34 124 16 183 -15 52 -30 58 -71 28z"/>
<path d="M4340 8260 c-13 -11 -26 -20 -30 -20 -9 0 -71 -87 -74 -103 -1 -7 -4
-16 -8 -22 -6 -10 -3 -107 4 -135 3 -8 12 -32 21 -53 16 -37 17 -38 44 -23 71
37 125 127 125 209 0 46 -37 167 -52 167 -4 0 -17 -9 -30 -20z"/>
<path d="M4890 8233 c-45 -19 -102 -78 -128 -130 -26 -54 -15 -64 73 -69 75
-4 117 11 170 58 53 46 100 143 72 146 -74 10 -157 8 -187 -5z"/>
<path d="M5608 8241 c-15 -5 -29 -6 -32 -3 -24 23 18 -68 53 -115 45 -62 109
-92 191 -88 97 4 103 8 83 58 -18 48 -74 111 -118 133 -36 19 -139 27 -177 15z"/>
<path d="M4705 7970 c14 -109 83 -170 208 -184 36 -4 37 -3 37 28 0 18 -3 36
-7 40 -4 3 -8 14 -9 22 -5 30 -49 83 -87 104 -20 12 -62 24 -92 27 l-55 6 5
-43z"/>
<path d="M5848 7993 c-18 -6 -40 -15 -49 -18 -9 -4 -27 -24 -40 -45 -13 -22
-28 -40 -32 -40 -5 0 -5 -5 -2 -10 4 -6 3 -16 -2 -23 -6 -7 -9 -25 -9 -42 1
-34 19 -38 96 -18 48 13 124 68 115 84 -4 5 -2 9 3 9 10 0 21 33 29 88 l5 33
-41 -2 c-22 -2 -55 -9 -73 -16z"/>
<path d="M4489 7726 c-44 -12 -94 -41 -117 -69 -28 -33 98 -101 176 -94 79 6
171 59 159 91 -8 20 -84 63 -132 74 -27 6 -56 5 -86 -2z"/>
<path d="M6066 7722 c-27 -8 -61 -25 -75 -38 -14 -13 -29 -24 -33 -24 -22 0
-3 -31 30 -51 20 -13 39 -25 42 -28 9 -10 33 -14 91 -17 62 -3 113 17 159 62
l25 25 -25 20 c-70 55 -140 72 -214 51z"/>
<path d="M4301 7449 c-89 -45 -134 -126 -123 -221 4 -35 23 -36 91 -2 71 36
102 86 109 175 3 39 0 69 -6 72 -5 4 -37 -7 -71 -24z"/>
<path d="M4261 7180 c-65 -35 -106 -87 -117 -147 -3 -14 -6 -31 -7 -37 -3 -14
89 -16 124 -1 50 20 90 62 114 121 13 31 21 63 18 70 -7 18 -94 14 -132 -6z"/>
<path d="M3833 7882 c-21 -2 -33 -9 -33 -18 0 -16 31 -79 52 -105 11 -14 74
-52 88 -54 3 0 10 -3 15 -5 13 -7 74 -5 107 3 31 8 29 29 -7 87 -47 74 -118
103 -222 92z"/>
<path d="M3205 7358 c10 -124 75 -191 198 -205 l47 -5 -4 28 c-10 71 -21 98
-60 138 -29 30 -56 46 -88 54 -73 19 -95 16 -93 -10z"/>
<path d="M2788 7077 c-43 -10 -46 -20 -19 -62 53 -82 106 -115 184 -115 29 -1
59 1 67 4 58 17 59 17 49 43 -15 40 -58 91 -97 114 -41 24 -122 31 -184 16z"/>
<path d="M3609 6852 c-57 -33 -66 -44 -93 -96 -20 -39 -26 -97 -17 -174 3 -27
95 10 138 56 40 43 54 80 58 147 4 96 -14 110 -86 67z"/>
<path d="M3401 6817 c-45 -21 -101 -73 -101 -94 0 -7 -4 -13 -8 -13 -10 0 -11
-7 -16 -84 -6 -105 3 -113 84 -70 32 17 60 42 80 72 30 45 33 60 33 137 -1 83
-3 85 -72 52z"/>
<path d="M3177 6756 c-62 -23 -98 -68 -116 -146 -15 -65 -7 -72 59 -57 76 16
136 91 145 180 4 35 2 37 -23 37 -15 -1 -44 -7 -65 -14z"/>
<path d="M3929 6416 c-11 -26 -17 -51 -14 -56 3 -6 2 -10 -3 -10 -10 0 -1 -56
17 -101 11 -29 69 -89 85 -89 6 0 19 15 28 33 45 86 19 189 -63 247 l-29 22
-21 -46z"/>
<path d="M5275 9950 c3 -5 8 -10 11 -10 2 0 4 5 4 10 0 6 -5 10 -11 10 -5 0
-7 -4 -4 -10z"/>
<path d="M5720 9930 c18 -12 30 -13 30 -2 0 4 -10 9 -22 9 -18 2 -20 0 -8 -7z"/>
<path d="M5765 9930 c-3 -5 1 -10 10 -10 9 0 13 5 10 10 -3 6 -8 10 -10 10 -2
0 -7 -4 -10 -10z"/>
<path d="M3789 9683 c-13 -16 -12 -17 4 -4 9 7 17 15 17 17 0 8 -8 3 -21 -13z"/>
<path d="M8416 8271 c-17 -19 -15 -23 24 -36 3 -1 18 -7 33 -13 40 -17 40 -16
9 28 -31 44 -42 48 -66 21z"/>
<path d="M1869 7883 c-13 -16 -12 -17 4 -4 9 7 17 15 17 17 0 8 -8 3 -21 -13z"/>
<path d="M9185 7243 c10 -42 58 -138 63 -124 2 7 0 23 -6 34 -5 12 -18 41 -28
65 -21 51 -37 65 -29 25z"/>
<path d="M1161 7024 c0 -11 3 -14 6 -6 3 7 2 16 -1 19 -3 4 -6 -2 -5 -13z"/>
<path d="M1126 6909 c-8 -42 0 -50 9 -9 4 17 5 34 2 36 -2 3 -7 -10 -11 -27z"/>
<path d="M1110 6850 c0 -5 5 -10 11 -10 5 0 7 5 4 10 -3 6 -8 10 -11 10 -2 0
-4 -4 -4 -10z"/>
<path d="M9415 6540 c4 -19 8 -53 8 -74 -1 -38 0 -39 12 -17 10 19 10 33 -1
69 -17 55 -30 70 -19 22z"/>
<path d="M9393 6476 c7 -14 13 -23 15 -21 7 6 -9 45 -18 45 -4 0 -3 -11 3 -24z"/>
<path d="M1860 6283 c-56 -16 -93 -44 -85 -63 8 -21 67 -59 109 -71 70 -19
206 39 176 76 -43 52 -134 78 -200 58z"/>
<path d="M2346 6171 c-16 -25 26 -121 71 -163 38 -36 76 -50 149 -54 l62 -3
-10 41 c-19 85 -71 148 -143 173 -42 15 -122 18 -129 6z"/>
<path d="M2265 6159 c-4 -6 -5 -12 -2 -15 2 -3 7 2 10 11 7 17 1 20 -8 4z"/>
<path d="M2083 6105 c-78 -27 -144 -103 -158 -183 -5 -29 -3 -32 22 -33 50 -3
98 3 111 13 6 6 12 7 12 4 0 -9 60 33 78 54 16 19 52 94 57 120 2 11 -1 23 -7
26 -17 11 -84 11 -115 -1z"/>
<path d="M2240 6013 c-29 -57 -31 -133 -5 -187 23 -49 81 -108 102 -104 34 6
64 127 49 196 -8 35 -59 111 -78 118 -10 3 -18 10 -18 15 0 26 -29 3 -50 -38z"/>
<path d="M9495 5938 c7 -212 8 -238 13 -233 6 6 9 34 16 145 3 50 0 92 -10
128 -9 28 -17 52 -19 52 -1 0 -2 -42 0 -92z"/>
<path d="M1844 5800 c6 -41 20 -78 38 -100 20 -24 74 -59 94 -63 11 -1 24 -5
29 -8 6 -2 24 -4 40 -4 27 0 30 3 28 30 -8 102 -88 173 -201 178 -32 2 -33 1
-28 -33z"/>
<path d="M2163 5705 c-11 -34 -11 -90 0 -132 9 -34 38 -69 82 -97 l39 -26 10
22 c37 92 15 186 -58 241 -46 36 -61 34 -73 -8z"/>
<path d="M7005 5640 c-43 -11 -82 -27 -88 -38 -12 -19 81 -99 122 -105 11 -2
23 -6 26 -9 9 -9 96 13 128 33 l31 18 -47 45 c-27 25 -60 47 -79 51 -18 4 -40
8 -48 10 -8 1 -28 -1 -45 -5z"/>
<path d="M2563 5633 c-17 -6 -16 -33 2 -74 20 -46 45 -73 84 -93 33 -17 124
-31 140 -21 16 9 -11 83 -45 124 -42 49 -133 81 -181 64z"/>
<path d="M9440 5630 c0 -5 5 -10 11 -10 5 0 7 5 4 10 -3 6 -8 10 -11 10 -2 0
-4 -4 -4 -10z"/>
<path d="M9440 5600 c0 -5 5 -10 11 -10 5 0 7 5 4 10 -3 6 -8 10 -11 10 -2 0
-4 -4 -4 -10z"/>
<path d="M9441 5518 c-4 -92 -9 -163 -17 -253 -4 -44 -8 -96 -10 -115 -1 -19
-3 -35 -4 -35 -1 0 -3 -11 -5 -25 -8 -55 -21 -121 -30 -150 -3 -10 -8 -27 -10
-37 -10 -51 -95 -266 -137 -348 l-20 -40 25 30 26 30 -30 -100 c-16 -55 -33
-109 -38 -120 -35 -80 -76 -195 -80 -225 0 -5 -10 -9 -22 -7 -17 2 -25 -9 -41
-53 -25 -67 -82 -175 -136 -257 -21 -34 -42 -80 -46 -102 -7 -48 -118 -210
-207 -304 -59 -62 -69 -74 -47 -61 12 8 4 -9 -19 -36 -7 -8 -44 -54 -82 -102
-115 -146 -284 -323 -299 -314 -5 3 -18 -6 -28 -20 -43 -58 -106 -116 -137
-125 -17 -5 -64 -40 -103 -77 -38 -37 -87 -80 -109 -97 -21 -16 -43 -34 -49
-40 -15 -13 -67 -49 -86 -60 -8 -4 2 9 23 30 21 21 43 48 49 59 10 18 8 17
-19 -4 -17 -14 -40 -32 -52 -40 -13 -8 -33 -24 -46 -35 -14 -11 -62 -49 -109
-85 -78 -60 -94 -77 -139 -152 -19 -30 -98 -91 -167 -129 -25 -13 -47 -27 -50
-30 -10 -13 -91 -50 -103 -47 -12 2 -147 -69 -158 -84 -3 -4 -17 -9 -32 -10
-15 -1 -27 -5 -27 -8 0 -3 -8 -6 -17 -7 -29 -2 -138 -34 -143 -43 -14 -21
-297 -131 -372 -144 -61 -10 -61 -18 -5 -80 l52 -58 75 20 c107 28 276 85 410
139 182 72 574 268 591 295 3 5 9 9 13 8 15 -2 382 251 442 305 6 5 33 28 60
50 115 95 216 188 318 294 115 119 119 123 176 191 30 35 61 71 68 78 26 28
210 279 255 347 25 39 77 124 116 190 39 66 75 126 81 133 6 6 8 12 6 12 -3 0
16 42 43 93 27 50 50 95 50 99 1 4 16 38 33 75 28 62 49 111 53 123 1 3 7 19
14 35 31 76 124 349 136 400 2 11 16 63 29 115 14 52 25 96 25 98 0 1 5 26 10
55 6 28 13 63 16 77 3 14 9 48 14 75 6 28 13 75 17 105 4 30 8 66 11 80 8 52
12 480 4 480 -4 0 -9 -28 -10 -62z"/>
<path d="M6655 5500 c-25 -5 -30 -10 -27 -30 4 -41 54 -103 102 -127 43 -22
93 -29 136 -17 20 5 21 9 11 39 -17 57 -64 106 -117 124 -31 11 -81 16 -105
11z"/>
<path d="M1668 5393 c-43 -48 -53 -149 -20 -203 25 -40 74 -90 84 -84 18 11
40 69 45 116 5 56 -19 117 -65 161 -27 26 -29 27 -44 10z"/>
<path d="M8937 5367 c-37 -46 -47 -67 -53 -112 -6 -37 11 -103 34 -133 l17
-22 30 28 c67 63 86 142 52 224 -10 26 -25 49 -33 52 -8 3 -27 -12 -47 -37z"/>
<path d="M2182 5348 c-43 -7 -84 -31 -113 -64 -20 -25 -54 -103 -46 -110 6 -6
94 -8 117 -2 27 7 65 31 83 52 28 31 59 96 54 111 -7 17 -44 22 -95 13z"/>
<path d="M7188 5302 c-48 -59 -58 -117 -33 -186 28 -80 37 -83 84 -30 23 26
41 55 41 65 0 10 4 20 9 23 27 17 -27 178 -58 176 -3 -1 -23 -22 -43 -48z"/>
<path d="M6607 5333 c-2 -2 -14 -6 -27 -8 -56 -11 -141 -105 -95 -105 8 0 15
-4 15 -8 0 -25 170 -37 178 -13 2 6 9 11 16 11 7 0 27 16 46 35 l34 35 -23 19
c-27 24 -130 48 -144 34z"/>
<path d="M6920 5236 c-77 -52 -106 -138 -79 -229 16 -55 26 -54 96 12 53 50
68 144 33 210 l-15 31 -35 -24z"/>
<path d="M2488 5174 c-16 -8 -28 -12 -28 -9 0 2 -9 -3 -20 -12 -20 -17 -19
-18 13 -51 42 -44 78 -62 130 -66 44 -3 87 8 125 32 l23 15 -33 34 c-18 19
-46 41 -61 50 -41 21 -116 25 -149 7z"/>
<path d="M1809 5126 c-23 -54 -27 -113 -8 -158 15 -38 67 -98 84 -98 10 0 34
37 41 63 1 4 3 9 4 12 1 3 3 9 4 14 0 5 4 12 7 16 8 7 -7 79 -23 109 -13 27
-69 86 -81 86 -4 0 -17 -20 -28 -44z"/>
<path d="M2380 5033 c-32 -6 -110 -60 -110 -76 0 -15 62 -56 92 -61 13 -3 24
-5 26 -7 19 -15 106 8 152 42 35 26 37 36 13 56 -51 40 -116 57 -173 46z"/>
<path d="M1730 4970 c0 -5 5 -10 10 -10 6 0 10 5 10 10 0 6 -4 10 -10 10 -5 0
-10 -4 -10 -10z"/>
<path d="M2747 4845 c-79 -41 -115 -125 -95 -220 10 -49 16 -52 56 -31 79 41
121 145 92 231 -13 40 -15 40 -53 20z"/>
<path d="M2497 4743 c-56 -43 -81 -101 -74 -175 7 -77 16 -86 59 -60 89 55
114 117 93 230 -7 40 -29 42 -78 5z"/>
<path d="M1875 4704 c-6 -1 -26 -5 -45 -8 -51 -9 -114 -70 -133 -128 -15 -44
-14 -49 1 -56 26 -13 92 -4 132 17 43 23 88 89 97 141 3 22 -1 28 -19 32 -13
2 -28 3 -33 2z"/>
<path d="M1961 4655 c-24 -52 -27 -112 -7 -158 16 -38 68 -97 85 -97 17 0 51
81 52 127 1 21 -6 54 -14 73 -15 35 -72 100 -87 100 -4 0 -17 -20 -29 -45z"/>
<path d="M1585 3493 c8 -18 18 -33 20 -33 10 0 4 16 -16 40 l-20 25 16 -32z"/>
<path d="M1777 3155 c17 -23 33 -32 33 -19 0 7 -40 44 -47 44 -2 0 4 -11 14
-25z"/>
</g>
</svg>
